<?xml version="1.0" encoding="utf-8"?>
<!-- Generator: Adobe Illustrator 18.1.1, SVG Export Plug-In . SVG Version: 6.00 Build 0)  -->
<svg version="1.1" id="Layer_1" xmlns="http://www.w3.org/2000/svg" xmlns:xlink="http://www.w3.org/1999/xlink" x="0px" y="0px"
	 viewBox="105.6 229.6 66.7 66.7" enable-background="new 105.6 229.6 66.7 66.7" xml:space="preserve">
<g>
	<path fill="#6399C7" d="M172.2,247.9c0-1.5-0.6-2.9-1.6-3.9c-1-1-2.4-1.6-3.9-1.6h-16.9v-4.5c0-4.6-3.7-8.3-8.3-8.3h-5.2
		c-4.6,0-8.3,3.7-8.3,8.3v4.5h-16.9c-3.1,0-5.5,2.5-5.5,5.5v16.3h1.6v26.5c0,3.1,2.5,5.5,5.5,5.5h52.4c3.1,0,5.5-2.5,5.5-5.5v-26.5
		h1.6V247.9z M130.6,237.9c0-1.6,0.6-3,1.7-4c1-1,2.5-1.7,4-1.7h5.2c1.6,0,3,0.6,4,1.7c1,1,1.7,2.5,1.7,4v4.5h-16.7V237.9z
		 M108.1,247.9c0-0.8,0.3-1.6,0.9-2.1c0.5-0.5,1.3-0.9,2.1-0.9h55.6c1.6,0,3,1.3,3,3v13.7H145v-4.5h-12.2v4.5h-24.7V247.9z
		 M135.4,265.5h7.1v4.5h-7.1V265.5z M135.4,262.9v-3.2h7.1v3.2H135.4z M167.2,292.8c-0.5,0.5-1.3,0.9-2.1,0.9h-52.4
		c-0.8,0-1.6-0.3-2.1-0.9c-0.5-0.5-0.9-1.3-0.9-2.1v-26.5h23.1v8.3H145v-1.3v-7.1h23.1v26.5C168.1,291.5,167.7,292.3,167.2,292.8z"
		/>
</g>
</svg>
