<?xml version="1.0" encoding="utf-8"?>
<!-- Generator: Adobe Illustrator 18.1.1, SVG Export Plug-In . SVG Version: 6.00 Build 0)  -->
<svg version="1.1" id="Layer_1" xmlns="http://www.w3.org/2000/svg" xmlns:xlink="http://www.w3.org/1999/xlink" x="0px" y="0px"
	 viewBox="92.9 159.8 88 71.9" enable-background="new 92.9 159.8 88 71.9" xml:space="preserve">
<g>
	<g transform="translate(-240.000000, -596.000000)">
		<g transform="translate(240.000000, 596.000000)">
			<path fill="#6399C7" d="M177.5,201.5l-22.3,17.3l-0.1,0.1c-1,0.9-2.1,1.5-3.4,1.7c-0.5,0.1-1.1,0.2-1.6,0.2l-19.3,2.9
				c-2.8,0.4-5.7,0.6-8.5,0.6h-19.1v-24.2c1.8-1.3,4.7-3.1,7.7-4.2c0,0,0.1,0,0.1,0c0.9-0.3,1.7-0.5,2.4-0.7c0,0,0.1,0,0.1,0
				c0.3-0.1,0.6-0.1,0.9-0.1c0.1,0,0.3,0,0.4,0c0.2,0,0.4,0,0.6,0c0.2,0,0.3,0,0.5,0c0.2,0,0.3,0,0.5,0c0.2,0,0.4,0.1,0.6,0.1
				c0.1,0,0.2,0,0.4,0.1c0.2,0.1,0.4,0.1,0.6,0.2c0.1,0,0.2,0.1,0.3,0.1c0.3,0.1,0.5,0.3,0.8,0.5c2.8,2.1,6.4,3.3,10.2,3.3h5.7
				c3.3,0,6.4,1.6,8.1,4.2c0.2,0.2,0.3,0.4,0.4,0.7c0,0,0,0.1,0,0.1c0.1,0.2,0.2,0.3,0.2,0.5c0,0,0,0.1,0,0.1c0,0.1,0.1,0.3,0.1,0.4
				c0,0,0,0.1,0,0.1c0,0.1,0,0.2,0,0.2c0,0,0,0,0,0.1c0,0.1-0.1,0.1-0.1,0.2c0,0-0.1,0.1-0.1,0.1c0,0-0.1,0.1-0.1,0.1
				c-0.1,0-0.1,0.1-0.2,0.1c-0.1,0-0.1,0.1-0.2,0.1c-0.1,0-0.1,0.1-0.2,0.1c-0.1,0-0.2,0.1-0.3,0.1c-0.1,0-0.1,0-0.2,0
				c-0.1,0-0.3,0.1-0.4,0.1c-0.1,0-0.2,0-0.2,0c-0.1,0-0.3,0-0.4,0.1c-0.5,0.1-1,0.1-1.6,0.1c-0.5,0-1,0-1.5,0h-14.3
				c-4.6,0-7.3,2.2-7.3,5.9c0,0.8,0.7,1.5,1.5,1.5c0.8,0,1.5-0.7,1.5-1.5c0-0.7,0-2.9,4.4-2.9h14.2c0.3,0,1,0,1.7,0l0.8,0
				c0.1,0,0.2,0,0.3,0c1,0,2,0,2.9,0c0.2,0,0.5,0,0.7,0c0.2,0,0.5,0,0.7,0c0.2,0,0.4,0,0.6,0c0.6,0,1.2,0,1.7,0c0.2,0,0.4,0,0.5,0
				c0.7,0,1.4-0.1,2.1-0.1c0,0,0,0,0.1,0c0.6,0,1.2-0.1,1.8-0.2c0.2,0,0.4-0.1,0.6-0.1c0.4-0.1,0.8-0.1,1.2-0.2
				c0.2,0,0.4-0.1,0.6-0.1c0.4-0.1,0.7-0.2,1-0.3c0.2,0,0.3-0.1,0.5-0.1c0.5-0.2,0.9-0.3,1.3-0.5l3.9-2.4c0,0,0,0,0,0l8.7-5.3
				c6-3.2,6.7-2.3,7.9-0.6C178.1,200.2,178,201,177.5,201.5L177.5,201.5z M100.3,228.8h-4.4v-32.3h4.4v2.2v28.6V228.8z M112,192.6
				v-25.4c0-0.8,0.7-1.5,1.5-1.5h13.2v9c0,1.1,0.6,2,1.6,2.5c1,0.5,2.1,0.3,2.9-0.3l4.3-3.4l4.3,3.4c0.2,0.2,0.5,0.3,0.8,0.4
				c0.1,0,0.2,0,0.3,0.1c0.2,0,0.4,0.1,0.6,0.1c0,0,0.1,0,0.1,0c0.1,0,0.2,0,0.3,0c0.1,0,0.1,0,0.2,0c0.2,0,0.5-0.1,0.7-0.2
				c1-0.5,1.6-1.4,1.6-2.5v-9h13.2c0.8,0,1.5,0.7,1.5,1.5v36.4l-3.1,1.9c-1.9,1-5.7,1.3-9.5,1.4c0.7-1.4,0.4-3-0.9-4.9
				c-2.3-3.4-6.2-5.5-10.5-5.5h-5.7c-3.1,0-6.1-1-8.4-2.7c-0.3-0.2-0.5-0.4-0.8-0.5c-0.1-0.1-0.2-0.1-0.3-0.2
				c-0.2-0.1-0.3-0.2-0.5-0.2c-0.1-0.1-0.3-0.1-0.4-0.2c-0.1-0.1-0.3-0.1-0.4-0.1c-0.3-0.1-0.7-0.2-1.1-0.3c0,0-0.1,0-0.1,0
				c-0.2,0-0.5-0.1-0.7-0.1c-0.1,0-0.1,0-0.2,0c-0.7,0-1.5,0-2.2,0.1c-0.1,0-0.1,0-0.2,0c-0.4,0.1-0.8,0.1-1.3,0.2
				c-0.1,0-0.2,0-0.3,0.1C112.2,192.6,112.1,192.6,112,192.6L112,192.6z M129.6,162.8h11.7v1.5v10.1l-5-4c-0.5-0.4-1.3-0.4-1.8,0
				l-4.9,4v-10.1V162.8z M180.1,197.9c-2.6-3.6-5.2-3.6-11.7-0.2l-6.6,4v-34.6c0-2.4-2-4.4-4.4-4.4h-13.2v-1.5
				c0-0.8-0.7-1.5-1.5-1.5h-14.7c-0.8,0-1.5,0.7-1.5,1.5v1.5h-13.2c-2.4,0-4.4,2-4.4,4.4v26.4c-2.3,0.9-4.4,2.1-5.9,3.1v-3.1H92.9
				v38.1h10.3v-4.4h19.1c3,0,6-0.2,9-0.7l19-2.9c0.7,0,1.4-0.1,2-0.2c1.8-0.2,3.4-1.1,4.8-2.4l22.2-17.3l0,0
				C181.1,202.3,181.4,199.8,180.1,197.9L180.1,197.9z"/>
		</g>
	</g>
</g>
</svg>
