<?xml version="1.0" encoding="utf-8"?>
<!-- Generator: Adobe Illustrator 18.1.1, SVG Export Plug-In . SVG Version: 6.00 Build 0)  -->
<svg version="1.1" id="Layer_1" xmlns="http://www.w3.org/2000/svg" xmlns:xlink="http://www.w3.org/1999/xlink" x="0px" y="0px"
	 viewBox="109.8 230.9 58.2 64.1" enable-background="new 109.8 230.9 58.2 64.1" xml:space="preserve">
<g transform="translate(0,-952.36218)">
	<path fill="#6399C7" d="M138.9,1183.2c-8.9,0-16,7.6-16,16.7c0,3.9,0.9,7.4,3.2,10.4c0.1,0.1,0.2,0.2,0.3,0.3
		c0.6,2,1.4,3.9,2.3,5.6l-3.1,3.1l-7.6,3.4c-4.7,2.1-8.1,6.2-8.1,12.2v10.9c0,0.8,0.7,1.5,1.5,1.5h55.3c0.8,0,1.5-0.7,1.5-1.5v-10.9
		c0-6-3.4-10.1-8.1-12.2l-7.6-3.4l-3.1-3.1c0.9-1.7,1.6-3.5,2.3-5.6c0.1-0.1,0.2-0.1,0.3-0.3c2.3-2.9,3.2-6.5,3.2-10.4
		C154.9,1190.8,147.8,1183.2,138.9,1183.2z M138.9,1186.2c7.2,0,13.1,6.1,13.1,13.8c0,0.3-0.1,0.5-0.1,0.8c-0.2-0.9-0.5-1.7-0.8-2.4
		c-0.3-0.8-0.7-1.4-1.3-2s-1.4-0.8-2.2-0.8c-1.6,0-2.8,0.6-4,1.1c-1.2,0.5-2.5,0.9-4.7,1.1c-2.2-0.2-3.5-0.6-4.7-1.1
		c-1.2-0.5-2.4-1.1-4-1.1c-0.8,0-1.6,0.3-2.2,0.8s-1,1.2-1.3,2c-0.3,0.7-0.5,1.5-0.8,2.4c0-0.3-0.1-0.5-0.1-0.8
		C125.8,1192.3,131.7,1186.2,138.9,1186.2z M130,1198.5c0,0,0.1,0,0.1,0c0.9,0,1.6,0.3,2.9,0.9c1.3,0.5,3.1,1.1,5.7,1.3
		c0,0,0.1,0,0.1,0c0,0,0.1,0,0.1,0c2.6-0.2,4.4-0.8,5.7-1.3c1.3-0.5,2-0.9,2.9-0.9c0.1,0,0.1,0,0.3,0.1c0.1,0.1,0.3,0.4,0.6,0.9
		c0.4,1,0.9,2.9,1.3,5.4c-0.9,4.8-2.4,9-4.4,11.8c-2,2.9-4.2,4.3-6.5,4.3s-4.5-1.4-6.5-4.3c-2-2.8-3.5-7-4.4-11.8
		c0.4-2.5,0.9-4.4,1.3-5.4c0.2-0.5,0.4-0.8,0.6-0.9C130,1198.6,130,1198.5,130,1198.5z M130.3,1218.7c1.5,2.1,3.3,3.7,5.3,4.6
		l-4.7,3.5l-2.6-6.1L130.3,1218.7z M147.5,1218.7l2,2l-2.6,6.1l-4.7-3.5C144.3,1222.4,146.1,1220.8,147.5,1218.7z M125.8,1222.4
		l3,7.3c0.3,0.8,1.5,1.1,2.2,0.6l2.9-2.1l-3.5,16.3h-17.7v-9.5c0-5,2.4-7.8,6.4-9.6L125.8,1222.4z M152,1222.4l6.7,3
		c4,1.8,6.4,4.6,6.4,9.6v9.5h-17.7l-3.5-16.3l2.9,2.1c0.7,0.5,1.9,0.2,2.2-0.6L152,1222.4z M138.9,1224.4l1.5,1.1l4,18.9h-11l4-18.9
		L138.9,1224.4z"/>
</g>
</svg>
