<?xml version="1.0" encoding="utf-8"?>
<!-- Generator: Adobe Illustrator 18.1.1, SVG Export Plug-In . SVG Version: 6.00 Build 0)  -->
<svg version="1.1" id="Layer_1" xmlns="http://www.w3.org/2000/svg" xmlns:xlink="http://www.w3.org/1999/xlink" x="0px" y="0px"
	 viewBox="106.6 230.4 63 63.3" enable-background="new 106.6 230.4 63 63.3" xml:space="preserve">
<g>
	<rect x="118.9" y="254.9" fill="#6399C7" width="38.4" height="2.8"/>
	<rect x="118.9" y="260.6" fill="#6399C7" width="38.4" height="2.8"/>
	<rect x="118.9" y="266.6" fill="#6399C7" width="32" height="2.8"/>
	<path fill="#6399C7" d="M161,283.7c5.5-5.9,8.5-13.5,8.5-21.6c0-17.4-14.1-31.6-31.6-31.6s-31.4,14.3-31.4,31.7
		s14.1,31.6,31.6,31.6c6,0,11.7-1.7,16.7-4.8l6.2,3.7V283.7L161,283.7z M158.4,287.7l-3.7-2.2l-0.8,0.5c-4.7,3.2-10.2,4.8-15.9,4.8
		c-15.9,0-28.8-12.9-28.8-28.8s13-28.8,28.9-28.8s28.8,12.9,28.8,28.8c0,7.5-2.9,14.6-8.1,20.1l-0.4,0.4V287.7z"/>
</g>
</svg>
