<?xml version="1.0" encoding="utf-8"?>
<!-- Generator: Adobe Illustrator 18.1.1, SVG Export Plug-In . SVG Version: 6.00 Build 0)  -->
<svg version="1.1" id="Layer_1" xmlns="http://www.w3.org/2000/svg" xmlns:xlink="http://www.w3.org/1999/xlink" x="0px" y="0px"
	 viewBox="118.2 87.1 68.7 72.6" enable-background="new 118.2 87.1 68.7 72.6" xml:space="preserve">
<g>
	<g>
		<path fill="#3C9ACA" d="M183.6,116c-0.6-0.3-1.3-0.4-2-0.4c-2.7,0-5.4,2-6.7,5.1c-0.7,1.7-0.7,4.4-0.7,5.1l-1.9,4.3l-7.2,22.6
			l0.1,0.4c0.3,0.7,1.1,1.8,2.6,1.8c0,0,0,0,0,0c0.4,0,0.7-0.1,1.1-0.2l0.4-0.1l11.6-20.6l1.9-4.3c0.5-0.5,2.5-2.3,3.3-3.9
			C187.8,121.7,186.7,117.4,183.6,116z M179.1,132.9l-11.2,19.8c0,0,0,0,0,0c-0.2,0-0.4-0.1-0.5-0.3l6.6-20.6l3.2,1.4l0.8-1.9
			l-3.3-1.4l1.2-2.7l4.8,2.1L179.1,132.9z M184.2,124.7c-0.4,0.9-1.6,2.1-2.3,2.9l-5.6-2.4c0-1,0.1-2.7,0.5-3.6
			c1-2.2,2.9-3.8,4.8-3.8c0.4,0,0.8,0.1,1.2,0.2C184.8,118.8,185.4,121.9,184.2,124.7z"/>
		<path fill="#3C9ACA" d="M161.1,97.1c0-4-9.5-5.8-18.4-5.8c-8.8,0-18.4,1.8-18.4,5.8c0,4,9.5,5.8,18.4,5.8
			C151.5,102.9,161.1,101.1,161.1,97.1z M126.4,97.1c0-1.3,5.7-3.7,16.3-3.7c10.5,0,16.3,2.5,16.3,3.7s-5.7,3.7-16.3,3.7
			C132.2,100.8,126.4,98.3,126.4,97.1z"/>
		<path fill="#3C9ACA" d="M153.7,113.2C153.7,113.2,153.7,113.2,153.7,113.2c-1-1-1.5-2.3-1.5-3.7c0-1.3,0.5-2.6,1.4-3.5
			c8.2-1.6,13.7-5,13.7-9c0-5.6-10.8-10-24.5-10c-13.8,0-24.5,4.4-24.5,10c0,4,5.4,7.3,13.4,8.9c2,2,2,5.2,0,7.2
			c-0.1,0.1-0.1,0.2-0.2,0.3c-7.8,4.1-13.1,12.3-13.1,21.7c0,13.5,11,24.5,24.5,24.5c13.5,0,24.5-11,24.5-24.5
			C167.3,125.6,161.7,117.2,153.7,113.2z M120.3,97.1c0-3.7,9.2-7.9,22.4-7.9c13.2,0,22.4,4.1,22.4,7.9c0,3.7-9.2,7.9-22.4,7.9
			C129.5,104.9,120.3,100.8,120.3,97.1z M134.5,106.5c2.6,0.4,5.3,0.6,8.2,0.6c2.8,0,5.5-0.2,8-0.5c-0.4,0.9-0.7,2-0.7,3.1
			c0,0.8,0.1,1.6,0.4,2.3c-2.4-0.8-5-1.2-7.7-1.2c-2.8,0-5.5,0.5-8.1,1.4C135.4,110.2,135.3,108.2,134.5,106.5z M142.8,157.6
			c-12.4,0-22.4-10.1-22.4-22.4s10.1-22.4,22.4-22.4s22.4,10.1,22.4,22.4C165.2,147.6,155.1,157.6,142.8,157.6z"/>
		<path fill="#3C9ACA" d="M142.8,115.2c-11,0-20,9-20,20c0,11,9,20,20,20c11,0,20-9,20-20C162.7,124.2,153.8,115.2,142.8,115.2z
			 M160.6,134.2h-4.4l-12.3-12.3v-4.4C152.8,117.9,160.1,125.1,160.6,134.2z M142.8,146.7l-11.5-11.5l11.5-11.5l11.5,11.5
			L142.8,146.7z M141.7,117.4v4.4l-12.3,12.3H125C125.5,125.1,132.7,117.9,141.7,117.4z M125,136.3h4.4l12.3,12.3v4.4
			C132.7,152.5,125.5,145.3,125,136.3z M143.8,153v-4.4l12.3-12.3h4.4C160.1,145.3,152.8,152.5,143.8,153z"/>
	</g>
</g>
</svg>
