<?xml version="1.0" encoding="utf-8"?>
<!-- Generator: Adobe Illustrator 18.1.1, SVG Export Plug-In . SVG Version: 6.00 Build 0)  -->
<svg version="1.1" id="Layer_1" xmlns="http://www.w3.org/2000/svg" xmlns:xlink="http://www.w3.org/1999/xlink" x="0px" y="0px"
	 viewBox="132.7 87.9 35.1 64.2" enable-background="new 132.7 87.9 35.1 64.2" xml:space="preserve">
<g>
	<path fill="#3C9ACA" d="M155,126.9L155,126.9l-1,0.5L155,126.9l-4.2-7.6c-0.2-0.3-0.5-0.5-1-0.5c-0.4,0-0.7,0.2-1,0.5l-4.1,7.6l0,0
		l0,0l0,0c-0.4,0.8-0.7,1.7-0.7,2.7c0,3.1,2.6,5.8,5.8,5.8c3.1,0,5.8-2.6,5.8-5.8C155.7,128.7,155.4,127.8,155,126.9L155,126.9z
		 M149.9,133.4c-2,0-3.7-1.7-3.7-3.7c0-0.6,0.2-1.2,0.4-1.7l0,0l3.2-5.9l3.2,5.9l0,0c0.3,0.5,0.4,1.1,0.4,1.7
		C153.6,131.7,151.9,133.4,149.9,133.4z"/>
	<path fill="#3C9ACA" d="M164.8,97.9l-0.4-9.1c0-0.5-0.5-1-1-1h-12.4c-0.5,0-1,0.4-1,1l-0.4,8.9h-0.7c-0.3,0-0.7,0.2-0.9,0.4l0,0
		L133.4,119v0.1c-0.5,0.9-0.7,1.6-0.7,2.2v0.1v26.6c0,2.3,1.9,4.2,4.2,4.2h26.7c2.3,0,4.2-1.9,4.2-4.2v-46
		C167.7,100,166.5,98.4,164.8,97.9z M158.2,97.7V90h1.1v7.7H158.2z M156.1,97.7H155V90h1.1V97.7z M162.7,97.7h-1.3V90h0.9
		L162.7,97.7z M151.9,89.9h0.9v7.7h-1.2L151.9,89.9z M163.5,150.1h-26.7c-1.1,0-2.1-1-2.1-2.1v-26.5c0-0.1,0-0.1,0-0.2
		c0-0.1,0-0.4,0.4-1.1l14.1-20.3h14.2c1.1,0,2.1,1,2.1,2.1v9.4h-3.1c-0.6,0-1,0.4-1,1c0,0.6,0.4,1,1,1h3.1v5.8h-5c-0.6,0-1,0.4-1,1
		c0,0.6,0.4,1,1,1h5v5.8h-3.1c-0.6,0-1,0.4-1,1c0,0.6,0.4,1,1,1h3.1v5.8h-5c-0.6,0-1,0.4-1,1s0.4,1,1,1h5v5.8h-3.1c-0.6,0-1,0.4-1,1
		s0.4,1,1,1h3.1v3.1C165.6,149.2,164.6,150.1,163.5,150.1z"/>
</g>
</svg>
