<?xml version="1.0" encoding="utf-8"?>
<!-- Generator: Adobe Illustrator 18.1.1, SVG Export Plug-In . SVG Version: 6.00 Build 0)  -->
<svg version="1.1" id="Layer_1" xmlns="http://www.w3.org/2000/svg" xmlns:xlink="http://www.w3.org/1999/xlink" x="0px" y="0px"
	 viewBox="38.2 94 63.6 52" enable-background="new 38.2 94 63.6 52" xml:space="preserve">
<path fill="#3C9ACA" d="M70,146c-0.9,0-8.8-0.1-14.8-0.7c-6.4-0.6-9.6-1-12.2-1.5c-1.7-0.3-3-0.9-3.8-1.8c-0.8-0.9-1-1.9-1-2.5
	c0-0.7,0.2-1.2,0.2-1.3c0-0.1,0.1-0.6,0-1.1c0-0.6,0-1.1-0.1-1.2c-0.1-0.4-0.2-1.1-0.2-1.7c0-0.2,0-0.5,0.1-0.8
	c0.2-0.5,0.6-0.7,0.8-0.9l0-0.9l0-0.2c0-0.3,0-0.6,0.1-0.9c0.1-0.4,0.6-0.9,1.2-0.9c0.4,0,1.1,0,1.5,0c0,0,0-0.1,0.1-0.1
	c0.3-0.4,0.6-0.7,0.9-0.9c0.8-9.2,3.6-16.7,7.9-21.1c0.1-0.5,0.4-1,0.8-1.4c0.4-0.3,0.8-0.5,1.4-0.6l0.4-0.3l0.2-0.1
	c0.8-0.6,2.2-1.5,2.9-2c0-0.2,0.1-0.7,0.3-1.2c0.3-0.9,0.8-1.9,1.9-2.3c1.6-0.5,6.7-1.4,6.7-1.4c0.4-0.1,1-0.2,1.2-0.3
	c0.1-0.1,0.2-0.1,0.2-0.1c0-0.4,0.1-0.9,0.2-1.4l0.1-0.9c0-0.2,0-0.4,0.1-0.7c0.1-0.3,0.2-0.5,0.4-0.6c0.2-0.2,0.5-0.3,0.8-0.3h2.7
	c0.3,0,0.6,0.1,0.8,0.3c0.2,0.2,0.3,0.4,0.4,0.6c0.1,0.2,0.1,0.4,0.1,0.6l0,0.2c0,0.2,0.1,0.4,0.1,0.7c0.1,0.5,0.1,1.1,0.2,1.5
	c0,0,0.1,0,0.2,0.1c0.3,0.1,0.8,0.2,1.2,0.3c0.5,0.1,5.2,0.9,6.7,1.4c1.1,0.4,1.6,1.4,1.9,2.3c0.2,0.5,0.3,1,0.3,1.3
	c0.7,0.5,2.1,1.4,2.9,1.9l0.2,0.1c0.2,0.1,0.3,0.2,0.4,0.3c0.5,0.1,1,0.3,1.3,0.6c0.4,0.3,0.7,0.8,0.8,1.4c4.3,4.3,7.1,11.9,8,21.1
	c0.3,0.1,0.5,0.4,0.8,0.8c0,0.1,0.1,0.1,0.1,0.2c0.5,0,1.1,0,1.5,0c0,0,0,0,0,0c0.6,0,1.1,0.5,1.3,0.9c0.1,0.3,0.1,0.6,0.1,0.9
	c0,0.1,0,0.2,0,0.2v1c0.3,0.1,0.6,0.4,0.9,0.8c0.1,0.3,0.1,0.6,0.1,0.9c0,0.6-0.1,1.3-0.2,1.6c0,0.2-0.1,0.7-0.1,1.3
	c0,0.5,0,1,0,1.1c0.1,0.2,0.2,0.7,0.2,1.3c0,0.5-0.1,1.6-1,2.5c-0.8,0.9-2.1,1.5-3.8,1.8c-2.6,0.5-5.9,0.8-12.2,1.5
	C78.8,145.9,70.9,146,70,146L70,146L70,146z M40,134.2c0,0,0,0.1,0,0.1c0,0.3,0,0.8,0.2,1.4c0,0.3,0.1,0.9,0.1,1.5
	c0,0.6,0,1.2-0.1,1.6c0,0.1-0.1,0.4-0.1,0.8c0,0.5,0.2,0.9,0.5,1.3c0.5,0.6,1.5,1,2.9,1.2c2.6,0.5,9.3,1.3,15.2,1.7
	c6.1,0.4,11.4,0.5,11.5,0.5c0,0,5.4-0.1,11.5-0.5c5.9-0.4,12.6-1.2,15.2-1.7c1.3-0.2,2.3-0.7,2.8-1.2c0.3-0.4,0.5-0.8,0.5-1.3
	c0-0.4-0.1-0.7-0.1-0.8c-0.1-0.4-0.1-1-0.1-1.5c0-0.7,0-1.3,0.1-1.6c0.1-0.6,0.2-1.1,0.2-1.4c0-0.1,0-0.1,0-0.1
	c-0.1,0-0.3-0.2-0.3-0.2c-0.1-0.1-0.1-0.1-0.1-0.1l-0.3-0.1c-0.2-0.1-0.3-0.2-0.3-0.4c0,0,0-1.6,0-1.7l0.1-0.1H99c0,0,0-0.2,0-0.2
	c-0.5,0-1.3,0-1.6,0.1c0,0-0.4,0-0.4,0c-0.1,0-0.2,0-0.3-0.1c0,0.3,0,1.5,0,1.8c0,1.5-0.1,2.8-1.2,3.7c-1,0.8-2.5,1.1-5.7,1.2
	c-3.7,0-8.1,0-13.2,0.1c-3.4,0.1-6,0.1-6.5,0.1l-0.1,0c-0.5,0-3.1-0.1-6.5-0.1c-5-0.1-9.5-0.1-13.2-0.1c-3.2-0.1-4.7-0.5-5.7-1.2
	c-1.1-0.9-1.2-2.2-1.2-3.7c0,0,0-1.5,0-1.8c-0.1,0.1-0.2,0.1-0.3,0.1l-0.4,0c-0.3,0-1.1,0-1.6-0.1c0,0,0,0.3,0,0.3v1.7
	c0,0.2-0.1,0.3-0.3,0.4l-0.3,0.1l-0.1-0.1l0,0.1C40.3,134,40.1,134.1,40,134.2C40,134.2,40,134.2,40,134.2z M44.7,130
	c0,0.4,0,0.8,0,1.1c0,1.7,0.1,2.9,0.8,3.8c0.7,0.9,2.2,1.4,4.7,1.5c8.7,0,19.7,0.3,19.8,0.3l0.2,0c3.5-0.1,12.4-0.3,19.6-0.3
	c2.5-0.1,4-0.6,4.7-1.5c0.7-0.8,0.8-2.1,0.8-3.7c0-0.3,0-1.5,0-1.5l0,0l0-0.3c-0.9-11.2-4.3-17-7.1-20c0,0,0,0-0.1,0
	c-0.5,0-1.2-0.2-1.6-0.5c-0.7-0.5-1.1-1.2-1.1-2l-0.1-0.2c-0.3-0.2-0.8-0.5-1.3-0.9l0.4,19.2c0,0.1,0,0.2-0.1,0.3
	c-0.1,0.1-0.2,0.1-0.3,0.1l-0.6,0c-0.2,0-0.4-0.2-0.4-0.4c0-1.1-0.2-5-0.4-9.2c-0.2-4.2-0.5-9.6-0.8-11.7l-0.2-0.9
	c-0.1-0.2-0.1-0.4-0.2-0.6c-0.2-0.7-0.6-1.2-0.8-1.2c-1.3-0.4-5.5-1.2-6.6-1.4c-0.3,0-0.5-0.1-0.8-0.2l-0.2,8l2.9,1.1
	c0.1,0,0.2,0.1,0.2,0.2c0,0.1,0.1,0.2,0,0.3l-0.1,0.3c-0.1,0.2-0.2,0.3-0.4,0.3c0,0-0.1,0-0.1,0l-3.4-1.3c-0.2-0.1-0.3-0.2-0.3-0.4
	l0-1l-0.6-9c0-0.1,0-0.1,0-0.2c-0.1-0.4-0.1-0.8-0.2-1.3L71,95.8l0-0.1h-1.9L68.9,97c-0.1,0.4-0.1,0.9-0.2,1.2c0,0.1,0,0.1,0,0.2
	l-0.6,9l-0.1,1c0,0.2-0.1,0.3-0.3,0.4l-3.4,1.3c0,0-0.1,0-0.1,0c-0.2,0-0.3-0.1-0.4-0.3l-0.1-0.3c0-0.1,0-0.2,0-0.3
	c0.1-0.1,0.1-0.2,0.2-0.2l2.9-1.1l-0.2-8c-0.3,0.1-0.5,0.1-0.8,0.2c-1.1,0.2-5.2,1-6.5,1.4c-0.2,0-0.6,0.5-0.8,1.2
	c-0.1,0.2-0.1,0.4-0.2,0.6l-0.1,0.7l-0.1,0.1l0.1,0c-0.3,2.1-0.7,7.6-0.9,11.8c-0.2,4.2-0.3,8.1-0.4,9.2c0,0.3-0.2,0.4-0.4,0.4
	l-0.6,0c-0.1,0-0.2-0.1-0.3-0.1c-0.1-0.1-0.1-0.2-0.1-0.3l0.4-19.2c-0.5,0.4-1,0.7-1.3,0.9l-0.1,0.1l0,0.1c0,0.8-0.4,1.5-1.1,2
	c-0.5,0.4-1.2,0.6-1.8,0.6c-2.6,2.9-6.1,8.8-7,20l0,0.3h0L44.7,130z M53.2,106.6c-0.3,0-0.6,0.1-0.9,0.4c-0.4,0.4-0.6,0.9-0.4,1.2
	c0.1,0.1,0.3,0.2,0.4,0.2c0.3,0,0.6-0.1,0.9-0.4c0.3-0.2,0.5-0.6,0.5-0.8c0-0.1,0-0.3-0.1-0.4C53.5,106.6,53.3,106.6,53.2,106.6z
	 M86.9,106.5c-0.1,0-0.2,0-0.3,0.1c-0.3,0.2-0.1,0.8,0.3,1.2c0.3,0.3,0.6,0.5,0.9,0.5c0.1,0,0.2,0,0.3-0.1c0.1-0.1,0.1-0.2,0.1-0.3
	c0-0.3-0.1-0.6-0.4-0.9C87.5,106.7,87.1,106.5,86.9,106.5z"/>
</svg>
