<?xml version="1.0" encoding="utf-8"?>
<!-- Generator: Adobe Illustrator 18.1.1, SVG Export Plug-In . SVG Version: 6.00 Build 0)  -->
<svg version="1.1" id="Layer_1" xmlns="http://www.w3.org/2000/svg" xmlns:xlink="http://www.w3.org/1999/xlink" x="0px" y="0px"
	 viewBox="114.2 90.5 71.3 61.6" enable-background="new 114.2 90.5 71.3 61.6" xml:space="preserve">
<path fill="#3C9ACA" d="M185.4,123.4v-9.4c0-0.6-0.5-1.2-1.2-1.2h-8.9L167,92.3c-0.4-1.1-1.4-1.8-2.6-1.8c-1.2,0-2.1,0.7-2.6,1.8
	l-4.5,11.2h-41.8c-0.6,0-1.2,0.5-1.2,1.2v9.8c0,0.6,0.5,1.2,1.2,1.2h12.7v6.4h-12.7c-0.6,0-1.2,0.5-1.2,1.2v10.2
	c0,0.6,0.5,1.2,1.2,1.2h12.7v7.7c0,0.6,0.5,1.2,1.2,1.2h30.5v4.1c0,2.5,2.1,4.6,4.6,4.6c2.5,0,4.6-2.1,4.6-4.6v-3.7h15.3
	c0.6,0,1.2-0.5,1.2-1.2v-10.2c0-0.6-0.5-1.2-1.2-1.2h-12.7v-3.5h5.5c1,0,1.8-0.4,2.3-1.2c0.4-0.6,0.5-1.3,0.4-2.1h4.4
	C185,124.6,185.4,124,185.4,123.4z M183.2,115.1v7.1h-4.1l-2.9-7.1H183.2z M149.4,122.9h-6.3h-12.8v-8.3H143h9.7L149.4,122.9z
	 M142.4,132.2h-12.7c-0.2-0.1-0.4-0.2-0.5-0.2h-12.7v-7.9h12.7c0.2,0,0.4-0.1,0.6-0.2h12.7L142.4,132.2L142.4,132.2z M129.9,113.4
	c-0.2-0.1-0.4-0.2-0.6-0.2h-12.7v-7.5h25.9v7.8L129.9,113.4L129.9,113.4z M130.3,141.2v-7.8H143h13.2v7.8H130.3z M159.7,138.1v2.9
	h-2.4v-7.8h5.9v0.3C161.3,134.2,159.7,136,159.7,138.1z M165.4,133.4h4.5c0.2,0.1,0.4,0.2,0.6,0.2h12.7v7.9h-14.3v-3.4
	c0-2.1-1.5-3.9-3.5-4.5L165.4,133.4L165.4,133.4z M169.5,132.2h-3.9v-4.5h3.9V132.2z M163.2,132.2h-6.4h-13.2V124h5.4
	c-0.4,0.9-0.3,1.9,0.3,2.6c0.5,0.8,1.4,1.2,2.3,1.2h11.7V132.2z M153.1,113.4h-9.5v-7.8h12.8L153.1,113.4z M166.7,147.4
	c0,1.3-1.1,2.3-2.3,2.3c-1.3,0-2.3-1.1-2.3-2.3v-9.3c0-1.3,1.1-2.3,2.3-2.3c1.3,0,2.3,1.1,2.3,2.3V147.4z M177.7,125.4
	c-0.1,0.1-0.2,0.3-0.4,0.3h-11.8v-3c0-0.6-0.5-1.2-1.2-1.2c-0.6,0-1.2,0.5-1.2,1.2v2.9h-11.6c-0.3,0-0.4-0.2-0.4-0.3
	c0-0.1-0.2-0.3-0.1-0.5L163.8,93c0.1-0.4,0.4-0.4,0.5-0.4s0.4,0,0.5,0.4l8.7,21.3l0,0l3.8,9.4l0,0l0.4,1
	C177.8,125.1,177.8,125.3,177.7,125.4z"/>
</svg>
