<?xml version="1.0" encoding="utf-8"?>
<!-- Generator: Adobe Illustrator 18.1.1, SVG Export Plug-In . SVG Version: 6.00 Build 0)  -->
<svg version="1.1" id="Layer_1" xmlns="http://www.w3.org/2000/svg" xmlns:xlink="http://www.w3.org/1999/xlink" x="0px" y="0px"
	 viewBox="13 108.7 74.4 45.1" enable-background="new 13 108.7 74.4 45.1" xml:space="preserve">
<path fill="#3C9ACA" d="M22.9,153.9c-0.5,0-1-0.4-1-1v-3.4l-0.2-0.1c-2.3-0.7-3.8-2.8-3.8-5.2v-10l-0.2,0c-2.8-0.6-4.7-3.1-4.7-5.9
	c0.2-3.2,2.8-5.7,6-5.7h3.7V118c0-5.1,4.1-9.2,9.2-9.2h10c3.3,0,6.4,1.8,8,4.6l0.3,0.5l0.3-0.5c1.6-2.9,4.7-4.6,8-4.6h10
	c5.1,0,9.2,4.1,9.2,9.2v4.6h3.7c3.3,0,5.9,2.5,6.1,5.7c0.1,2.8-1.9,5.3-4.6,5.9l-0.2,0.1v10c0,2.4-1.5,4.5-3.8,5.2l-0.2,0.1v3.4
	c0,0.5-0.4,1-1,1h-5.7c-0.5,0-1-0.4-1-1v-3.2H29.6v3.2c0,0.5-0.4,1-1,1H22.9z M72.7,151.9h3.7v-2.3h-3.7V151.9z M23.9,151.9h3.7
	v-2.2h-3.7V151.9z M76.3,124.5c-1.9,0-3.5,1.6-3.5,3.5v19.7H77c1.9,0,3.5-1.6,3.5-3.5v-10.8c0-0.5,0.4-1,1-1c1,0,2.1-0.4,2.8-1.2
	l0.1-0.1l0,0c0.7-0.7,1-1.7,1-2.7c-0.1-2.1-1.9-3.8-4-3.8L76.3,124.5z M29.6,147.7h41.2v-4.5H29.6V147.7z M19.1,124.5
	c-2.2,0-4,1.7-4.1,3.8l0,0.1c0,2.1,1.7,3.9,3.9,3.9h0c0.5,0,1,0.4,1,1v10.9c0,1.9,1.6,3.5,3.5,3.5h4.3l0-19.7c0-1.9-1.6-3.5-3.5-3.5
	C24.1,124.5,19.1,124.5,19.1,124.5z M29.6,141.2h41.2v-6.9H29.6V141.2z M58.4,110.7c-4,0-7.3,3.3-7.3,7.3v14.4h19.6v-4.3
	c0-2.7,2-5,4.6-5.4l0.3,0V118c0-4-3.3-7.3-7.3-7.3H58.4z M32,110.7c-4,0-7.3,3.3-7.3,7.3v4.6l0.3,0c2.7,0.4,4.6,2.7,4.6,5.4v4.3
	h19.6V118c0-4-3.3-7.3-7.3-7.3H32z"/>
</svg>
