<?xml version="1.0" encoding="utf-8"?>
<!-- Generator: Adobe Illustrator 18.1.1, SVG Export Plug-In . SVG Version: 6.00 Build 0)  -->
<svg version="1.1" id="Layer_1" xmlns="http://www.w3.org/2000/svg" xmlns:xlink="http://www.w3.org/1999/xlink" x="0px" y="0px"
	 viewBox="201.5 92.9 77 46.6" enable-background="new 201.5 92.9 77 46.6" xml:space="preserve">
<g transform="translate(0,-1020.3622)">
	<path fill="#3C9ACA" d="M222,1159.9c-0.4,0-0.9-0.2-1.1-0.7l-2.4-4.9H211c-0.7,0-1.2-0.5-1.2-1.2v-11.3h-5.9v8.5
		c0,0.7-0.5,1.2-1.2,1.2c-0.3,0-0.6-0.1-0.8-0.4c-0.2-0.2-0.3-0.5-0.3-0.8v-19.4c0-0.7,0.5-1.2,1.2-1.2c0.3,0,0.6,0.1,0.9,0.4
		s0.3,0.5,0.3,0.8v8.5h5.9v-11.3c0-0.7,0.5-1.2,1.2-1.2h4.3v-4.3c0-0.7,0.5-1.2,1.2-1.2h12.6v-5.9c0,0-12.6,0-12.6,0
		c-0.7,0-1.2-0.5-1.2-1.1c0-0.7,0.5-1.2,1.1-1.2l27.8,0c0.7,0,1.2,0.5,1.2,1.2c0,0.6-0.5,1.2-1.2,1.2l-12.7,0v5.9h12.7
		c0.7,0,1.2,0.5,1.2,1.2v4.3h9.9c0.4,0,0.8,0.2,1,0.6l5.2,9.1h6.4v-8.5c0-0.7,0.5-1.2,1.2-1.2h8.3c0.7,0,1.2,0.5,1.2,1.2v27.6
		c0,0.7-0.5,1.2-1.2,1.2H269c-0.7,0-1.2-0.5-1.2-1.2v-8.5h-5.9v11.3c0,0.7-0.5,1.2-1.2,1.2H222z M212.2,1152h7.1
		c0.5,0,0.9,0.3,1.1,0.7l2.4,4.9h36.8v-11.3c0-0.7,0.5-1.2,1.2-1.2h8.3c0.7,0,1.2,0.5,1.2,1.2v8.5h5.9v-25.3h-5.9v8.5
		c0,0.7-0.5,1.2-1.2,1.2h-8.3c-0.4,0-0.8-0.2-1-0.6l-5.2-9.1h-10.4c-0.7,0-1.2-0.5-1.2-1.2v-4.3h-25.3v4.3c0,0.7-0.5,1.2-1.2,1.2
		h-4.3V1152z"/>
</g>
</svg>
