<?xml version="1.0" encoding="utf-8"?>
<!-- Generator: Adobe Illustrator 18.1.1, SVG Export Plug-In . SVG Version: 6.00 Build 0)  -->
<svg version="1.1" id="Layer_1" xmlns="http://www.w3.org/2000/svg" xmlns:xlink="http://www.w3.org/1999/xlink" x="0px" y="0px"
	 viewBox="117.4 87.3 65.3 65.4" enable-background="new 117.4 87.3 65.3 65.4" xml:space="preserve">
<g>
	<g>
		<path fill="#3C9ACA" d="M172.1,106.3c-0.2,0-0.5-0.1-0.6-0.2l-8.1-6.3c-0.2-0.2-0.4-0.5-0.4-0.7s0.1-0.6,0.3-0.8l1.7-1.8
			c0.4-0.4,0.7-0.9,0.9-1.4c0.1-0.3,0.4-0.5,0.7-0.6s0.7,0,0.9,0.2l8.1,6.2c0.3,0.2,0.4,0.6,0.4,0.9c-0.1,0.4-0.3,0.7-0.6,0.8
			c-0.6,0.3-1,0.6-1.4,1.1c-0.4,0.5-0.6,1-0.7,1.6c-0.1,0.4-0.3,0.7-0.7,0.8C172.3,106.3,172.2,106.3,172.1,106.3z M165.5,98.9
			l6.1,4.7c0.2-0.4,0.4-0.7,0.6-1c0.3-0.3,0.5-0.6,0.8-0.9l-6-4.6c-0.2,0.3-0.4,0.6-0.7,0.8L165.5,98.9z"/>
	</g>
	<g>
		<path fill="#3C9ACA" d="M167.8,152.7h-40.5c-5.5,0-9.9-4.5-9.9-10s4.5-10,9.9-10h17.4c0.2,0,0.4,0.1,0.6,0.2l19.4,13.3
			c0.7,0.5,1.5,0.7,2.4,0.7c1.4,0,2.7-0.7,3.5-1.9c1.3-1.9,0.8-4.5-1.1-5.9l-6.8-4.6c-0.4-0.3-0.5-0.7-0.4-1.1
			c0.2-0.4,0.5-0.7,1-0.7h4.5c5.5,0,9.9,4.5,9.9,10C177.8,148.2,173.3,152.7,167.8,152.7z M127.3,134.8c-4.4,0-7.9,3.6-7.9,7.9
			s3.6,7.9,7.9,7.9h40.5c4.4,0,7.9-3.6,7.9-7.9s-3.6-7.9-7.9-7.9h-1.2l4.1,2.7c2.8,2,3.6,5.9,1.6,8.7c-1.2,1.7-3.1,2.7-5.2,2.7
			c-1.2,0-2.5-0.4-3.5-1.1l-19.2-13.1H127.3z"/>
	</g>
	<g>
		<path fill="#3C9ACA" d="M167.1,149c-1.2,0-2.5-0.4-3.5-1.1l-31.4-21.5c-1.3-0.9-2.2-2.2-2.6-3.8c-0.1-0.6,0.2-1.1,0.8-1.2
			c0.6-0.1,1.1,0.2,1.2,0.8c0.2,0.8,0.6,1.5,1.2,2.1c0.8,0.8,1.8,1.2,2.9,1.2c1.1,0,2.2-0.5,3-1.3l4.2-4.4c0.4-0.4,0.9-0.4,1.3-0.2
			l26.4,18c2.8,2,3.6,5.9,1.6,8.7C171.1,147.9,169.1,149,167.1,149z M137.1,127.3l27.6,18.9c0.7,0.5,1.5,0.7,2.4,0.7
			c1.4,0,2.7-0.7,3.5-1.9c1.3-1.9,0.8-4.5-1.1-5.9l-25.6-17.5l-3.6,3.8C139.4,126.4,138.3,127,137.1,127.3z"/>
	</g>
	<g>
		<path fill="#3C9ACA" d="M135.7,127.5L135.7,127.5c-1.6,0-3.1-0.6-4.3-1.8c-0.9-0.8-1.5-1.9-1.8-3.1c0-0.1-0.1-0.1-0.1-0.2
			c0-0.1,0-0.1-0.1-0.2v-0.1c-0.1-0.2-0.1-0.4-0.1-0.6c-0.2-1.8,0.5-3.5,1.7-4.8l26.2-27.6c1.2-1.2,2.8-2,4.5-2
			c1.6,0,3.1,0.6,4.3,1.8c1.9,1.8,2.4,4.4,1.5,6.9c-0.3,0.8-0.7,1.4-1.3,2.1l-26.2,27.6C139,126.7,137.4,127.5,135.7,127.5z
			 M161.9,89.3c-1.1,0-2.2,0.5-3,1.3l-26.2,27.7c-0.8,0.9-1.2,2-1.1,3.2c0,0.2,0,0.3,0.1,0.4v0.2c0,0,0,0.1,0.1,0.1
			c0.2,0.8,0.6,1.5,1.2,2.1c0.8,0.8,1.8,1.2,2.9,1.2l0,0c1.1,0,2.2-0.5,3-1.3L165,96.6c0.4-0.4,0.7-0.9,0.9-1.4
			c0.6-1.6,0.2-3.4-1-4.6C164,89.8,163,89.3,161.9,89.3z"/>
	</g>
	<g>
		<path fill="#3C9ACA" d="M176.9,126.6L176.9,126.6c-0.5,0-0.9-0.4-1-0.9l-2.2-15c-0.1-0.4,0.1-0.8,0.4-1c0.3-0.2,0.7-0.3,1.1-0.1
			c1.1,0.6,2.4,0.6,3.5,0c0.4-0.2,0.8-0.2,1.1,0.1s0.5,0.6,0.4,1l-2.3,15C177.8,126.2,177.4,126.6,176.9,126.6z M175.9,112l1,6.5
			l1-6.5C177.2,112.1,176.5,112.1,175.9,112z"/>
	</g>
	<g>
		<path fill="#3C9ACA" d="M176.9,112.1L176.9,112.1c-0.9,0-1.9-0.2-2.7-0.7c-0.3-0.2-0.6-0.4-0.9-0.6c-1.8-1.3-2.6-3.6-2.2-5.7
			c0.2-0.9,0.6-1.8,1.1-2.6c0.6-0.8,1.3-1.3,2.2-1.8c0.8-0.4,1.6-0.6,2.5-0.6c1.3,0,2.6,0.4,3.6,1.2c2.6,2,3,5.7,1,8.3
			c-0.5,0.7-1.2,1.2-2,1.6C178.7,111.9,177.8,112.1,176.9,112.1z M176.9,102.3c-0.6,0-1.1,0.1-1.6,0.4c-0.6,0.3-1,0.6-1.4,1.1
			c-0.4,0.5-0.6,1-0.7,1.6c-0.3,1.4,0.3,2.8,1.4,3.8c0.2,0.2,0.4,0.3,0.6,0.4c0.5,0.3,1.1,0.4,1.8,0.4l0,0c0.6,0,1.2-0.2,1.8-0.4
			s0.9-0.6,1.2-1c1.3-1.7,1-4.1-0.7-5.4C178.5,102.6,177.7,102.3,176.9,102.3z"/>
	</g>
	<g>
		<path fill="#3C9ACA" d="M176.9,108.5c-0.4,0-0.7-0.1-1-0.3c-0.2-0.1-0.3-0.2-0.4-0.2c-0.7-0.5-1-1.4-0.8-2.3
			c0.1-0.4,0.2-0.7,0.5-1c0.2-0.3,0.5-0.5,0.8-0.7c0.3-0.2,0.6-0.2,1-0.2s0.9,0.1,1.4,0.5c1,0.8,1.2,2.2,0.4,3.2
			c-0.2,0.3-0.5,0.5-0.8,0.6C177.6,108.4,177.2,108.5,176.9,108.5z M176.9,104.9c-0.2,0-0.4,0.1-0.5,0.1c-0.2,0.1-0.4,0.2-0.5,0.4
			c-0.1,0.2-0.2,0.4-0.3,0.6c-0.1,0.5,0.1,1,0.5,1.2c0.1,0.1,0.1,0.1,0.2,0.1c0.4,0.2,0.8,0.2,1.1,0c0.2-0.1,0.3-0.2,0.4-0.4
			c0.4-0.6,0.3-1.3-0.2-1.8C177.3,105,177.1,104.9,176.9,104.9z"/>
	</g>
	<g>
		<path fill="#3C9ACA" d="M161.3,97.2c-1.8,0-3.1-1.4-3.1-3.1c0-1.8,1.4-3.1,3.1-3.1c1.8,0,3.1,1.4,3.1,3.1
			C164.4,95.8,163.1,97.2,161.3,97.2z M161.3,91.9c-1.2,0-2.1,0.9-2.1,2.1c0,1.2,0.9,2.1,2.1,2.1s2.1-0.9,2.1-2.1
			C163.4,92.8,162.5,91.9,161.3,91.9z"/>
	</g>
	<g>
		<path fill="#3C9ACA" d="M135.6,124.2c-1.8,0-3.1-1.4-3.1-3.1c0-1.8,1.4-3.1,3.1-3.1s3.1,1.4,3.1,3.1
			C138.8,122.8,137.4,124.2,135.6,124.2z M135.6,119c-1.2,0-2.1,0.9-2.1,2.1c0,1.2,0.9,2.1,2.1,2.1s2.1-0.9,2.1-2.1
			C137.8,119.9,136.8,119,135.6,119z"/>
	</g>
	<g>
		<path fill="#3C9ACA" d="M167.1,145.9c-1.8,0-3.1-1.4-3.1-3.1c0-1.8,1.4-3.1,3.1-3.1s3.1,1.4,3.1,3.1
			C170.2,144.5,168.8,145.9,167.1,145.9z M167.1,140.6c-1.2,0-2.1,0.9-2.1,2.1s0.9,2.1,2.1,2.1s2.1-0.9,2.1-2.1
			C169.2,141.5,168.3,140.6,167.1,140.6z"/>
	</g>
</g>
</svg>
