<?xml version="1.0" encoding="utf-8"?>
<!-- Generator: Adobe Illustrator 18.1.1, SVG Export Plug-In . SVG Version: 6.00 Build 0)  -->
<svg version="1.1" id="Layer_1" xmlns="http://www.w3.org/2000/svg" xmlns:xlink="http://www.w3.org/1999/xlink" x="0px" y="0px"
	 viewBox="142.6 88.2 54.9 63.4" enable-background="new 142.6 88.2 54.9 63.4" xml:space="preserve">
<path fill="#3C9ACA" d="M149.2,151.7c-0.4,0-0.8-0.2-1-0.6c-0.2-0.3-0.2-0.8-0.1-1.1c2.2-4.5,6.9-7.8,12.6-8.9l1.1-0.2l-12.7-12.7
	l-0.3,0.1c-0.4,0.1-0.9,0.2-1.4,0.2c-2.7,0-4.9-2.2-4.9-4.9s2.2-4.9,4.9-4.9c0.5,0,1,0.1,1.4,0.2l0.3,0.1l15.7-15.7l-2.3-2.3
	c-1.3-1.3-2.1-2.9-2.3-4.5c-0.3-2.1,0.5-4.1,2.3-5.9c1.5-1.5,3.2-2.3,5.1-2.3c1.9,0,3.9,0.9,5.3,2.3l2.7,2.7l0.3-0.1
	c1.1-0.2,2.3-0.3,3.4-0.3c5.8,0,12.2,2.7,17.4,7.3c0.3,0.3,0.5,0.6,0.5,0.9c0,0.3-0.1,0.6-0.4,0.9l-6.3,6.3l0.3,0.4
	c1.9,3,1.5,6.9-1,9.4c-1.4,1.4-3.3,2.2-5.4,2.2c-1.5,0-2.9-0.4-4.1-1.1l-0.4-0.3l-6.3,6.3c-0.3,0.3-0.6,0.5-0.8,0.5
	c-0.3,0-0.6-0.2-0.9-0.5c-4.5-5.1-7.1-11.2-7.3-16.9l0-1.4l-13.5,13.5l0.3,0.4c0.6,0.8,0.9,1.8,0.9,2.8c0,1-0.3,2-0.9,2.8l-0.3,0.4
	l14,13.9l0.2,0c2.4,0.1,4.6,0.5,6.7,1.3l0.8,0.3v-1.3c0-0.7,0.5-1.2,1.2-1.2c0.7,0,1.2,0.5,1.2,1.2v2.6l0.3,0.2
	c2.5,1.6,4.4,3.7,5.6,6.2c0.2,0.4,0.2,0.8-0.1,1.1c-0.2,0.3-0.6,0.6-1,0.6H149.2z M164.7,143.1c-4.9,0-9.6,1.9-12.5,5.2l-0.9,1h26.8
	l-0.9-1C174.3,145.1,169.6,143.1,164.7,143.1z M147.5,121c-1.4,0-2.5,1.1-2.5,2.5c0,1.4,1.1,2.5,2.5,2.5c1.4,0,2.5-1.1,2.5-2.5
	C150,122.2,148.9,121,147.5,121z M179.2,95.4c-3.5,0-6.5,1.1-8.7,3.3c-5.1,5.2-4.3,15.2,2,23.4l0.4,0.5l21.5-21.5l-0.6-0.4
	C189,97.3,183.8,95.4,179.2,95.4z M181.8,117.2l0.8,0.3c0.6,0.3,1.3,0.4,2,0.4c1.4,0,2.7-0.5,3.7-1.5c1.5-1.5,1.9-3.7,1.1-5.6
	l-0.3-0.8L181.8,117.2z M167.7,90.8c-1.3,0-2.4,0.5-3.4,1.5c-1.6,1.6-1.6,3.2-1.4,4.3c0.2,1.2,0.9,2.3,1.4,2.8l1.8,1.8l0.4-0.7
	c0.7-1.3,1.5-2.5,2.5-3.5c1-1,2.2-1.9,3.5-2.5l0.7-0.4l-1.8-1.8C170.9,91.7,169.4,90.8,167.7,90.8z"/>
</svg>
