<?xml version="1.0" encoding="utf-8"?>
<!-- Generator: Adobe Illustrator 18.1.1, SVG Export Plug-In . SVG Version: 6.00 Build 0)  -->
<svg version="1.1" id="Layer_1" xmlns="http://www.w3.org/2000/svg" xmlns:xlink="http://www.w3.org/1999/xlink" x="0px" y="0px"
	 viewBox="143 88.5 32.3 64.3" enable-background="new 143 88.5 32.3 64.3" xml:space="preserve">
<g>
	<path fill="#3C9ACA" d="M165.9,88.5l-15.2,0.2h-4.9c-1.5,0-2.7,1.2-2.7,2.7v1.5V93v0.9c0,1.5,1.2,2.1,2,2.5l2.3,0.8
		c0,1-0.5,2.9-1.3,4.7c-0.1,0.2-0.4,0.4-0.7,0.7c-0.6,0.4-1.3,1-1.5,2.1c-0.2,1,0.2,1.8,1,2.3c0.5,0.3,1.1,0.4,1.8,0.4
		c1.1,0,2.2-0.4,2.9-0.9c2.1-1.6,3.1-4.2,3.9-6.7c0-0.1,0.1-0.3,0.1-0.4l2.6,0.9l0,1.6l0,0.3c-1.2,0.4-2,1.5-2,2.9v4.5
		c0,0,0,0.1,0,0.1c0,0,0,0.1,0,0.1c0,0.6,0.5,1.1,1.1,1.1h0.3v2.6c0,3.9-4.3,7.7-6.7,8.7c-3.2,1.4-3.9,5.5-3.9,5.7l-0.6,21.8
		c0,1.7,1.4,3.1,3.1,3.1h4.7h5.2h11.3c1.7,0,3.1-1.4,3.1-3.1v-24.4l0-0.1c0-0.1-0.2-2.9-1.2-5.2c-0.4-0.8-0.9-1.8-1.4-2.7
		c-0.7-1.3-1.7-2.9-1.7-3.7c0-1.2,0-2.2,0-2.7h0.2c0.6,0,1.1-0.5,1.1-1.1c0-0.1,0-0.1,0-0.2c0-0.1,0-0.1,0-0.2v-4.4
		c0-1.5-1.1-2.8-2.6-3v-2.9c0.5-0.2,2.2-0.2,3.2-0.2c2.2,0.1,4.2,0.1,5.3-1c0.3-0.3,0.6-0.9,0.5-1.7v-0.7L165.9,88.5z M169.5,96.9
		c-2.1-0.1-3.9-0.1-4.9,0.8c-0.4,0.4-0.6,0.9-0.6,1.5v3h0h-0.4h-0.9h-4.3l0-2.4l0-0.9l-7.8-2.8l-4.3-1.5l-0.1,0l-0.1,0
		c-0.3-0.1-0.7-0.3-0.8-0.4v-0.2v-0.2V93v-0.1v-1.5c0-0.2,0.2-0.4,0.4-0.4h4.9l14.5-0.2l7.7,5.9C172.1,96.9,170.5,96.9,169.5,96.9z
		 M148.1,104.8c-0.5,0.4-1.6,0.5-2,0.4c0.1-0.2,0.3-0.4,0.7-0.8c0.5-0.4,1-0.8,1.3-1.5c0.3-0.8,1.2-2.9,1.5-4.8l1.8,0.6
		C150.7,101,149.8,103.5,148.1,104.8z M165.3,113.7c0,1.4,1,3.1,2,4.8c0.5,0.8,1,1.7,1.3,2.4c0.8,1.8,1,4.1,1,4.4v24.4
		c0,0.4-0.3,0.8-0.8,0.8h-11.3h-5.2h-4.7c-0.4,0-0.8-0.3-0.8-0.7l0.6-21.5c0.1-0.4,0.6-3,2.5-3.8c2.7-1.1,8.1-5.6,8.1-10.8V111h7.4
		C165.3,111.5,165.3,112.5,165.3,113.7z M166.6,105.2v3.5h-10.2v-3.5c0-0.4,0.3-0.8,0.8-0.8h5.5h1.3h1.9
		C166.3,104.4,166.6,104.7,166.6,105.2z"/>
</g>
</svg>
