<?xml version="1.0" encoding="utf-8"?>
<!-- Generator: Adobe Illustrator 18.1.1, SVG Export Plug-In . SVG Version: 6.00 Build 0)  -->
<svg version="1.1" id="Layer_1" xmlns="http://www.w3.org/2000/svg" xmlns:xlink="http://www.w3.org/1999/xlink" x="0px" y="0px"
	 viewBox="121 90.3 37.9 60.2" enable-background="new 121 90.3 37.9 60.2" xml:space="preserve">
<g>
	<g>
		<path fill="#3C9ACA" d="M126.2,150.5c-2.8,0-5.1-2.3-5.1-5.1v-32.1c0-2.8,2.3-5.1,5.1-5.1h27.7c2.8,0,5.1,2.3,5.1,5.1v32.1
			c0.1,1.3-0.4,2.5-1.3,3.5c-1,1.1-2.4,1.7-3.9,1.7H126.2z M126.2,109.9c-1.7,0-3.1,1.4-3.1,3.1v32.1c0,1.7,1.4,3.1,3.1,3.1h27.7
			c1.7,0,3.1-1.4,3.1-3.1V113c0-1.7-1.4-3.1-3.1-3.1H126.2z"/>
	</g>
	<g>
		<path fill="#3C9ACA" d="M129.2,109.9c-0.5,0-1.1-0.4-1.1-1.1v-7.4c0-0.5,0.4-1.1,1.1-1.1h20.5c0.5,0,1.1,0.4,1.1,1.1v7.4
			c0,0.5-0.6,1.1-1.1,1.1H129.2z M130.3,107.9h18.5v-5.6h-18.5V107.9z"/>
	</g>
	<g>
		<path fill="#3C9ACA" d="M125,102.3c-0.5,0-0.9-0.4-0.9-0.9V94c0-2,1.7-3.7,3.7-3.7h23.3c2,0,3.7,1.7,3.7,3.7v7.4
			c0.1,0.3,0,0.4-0.1,0.5c-0.2,0.2-0.5,0.4-0.8,0.4H125z M127.8,92.3c-0.9,0-1.7,0.8-1.7,1.7v6.3H153V94c0-0.9-0.8-1.7-1.7-1.7
			H127.8z"/>
	</g>
	<g>
		<g>
			<rect x="138.9" y="123.4" fill="#3C9ACA" width="2" height="13.3"/>
		</g>
		<g>
			<rect x="133.3" y="129" fill="#3C9ACA" width="13.2" height="2"/>
		</g>
	</g>
</g>
</svg>
