<?xml version="1.0" encoding="utf-8"?>
<!-- Generator: Adobe Illustrator 18.1.1, SVG Export Plug-In . SVG Version: 6.00 Build 0)  -->
<svg version="1.1" id="Layer_1" xmlns="http://www.w3.org/2000/svg" xmlns:xlink="http://www.w3.org/1999/xlink" x="0px" y="0px"
	 viewBox="119.5 89.9 61.1 60.1" enable-background="new 119.5 89.9 61.1 60.1" xml:space="preserve">
<path fill="none" stroke="#3C9ACA" stroke-width="2" stroke-miterlimit="10" d="M143.1,130.2l-8.2,12.5c-3.9,5.9-9.7,8.1-12.9,4.9
	c-3.2-3.2-1.1-9.2,4.7-13.3l12-8.6"/>
<path fill="none" stroke="#3C9ACA" stroke-width="2" stroke-miterlimit="10" d="M146.4,94.2c0,0,4.2,23.9,29.8,30"/>
<path fill="none" stroke="#3C9ACA" stroke-width="2" stroke-miterlimit="10" d="M143,96.3c0,0,5.2,25.4,31.1,31.1"/>
<path fill="none" stroke="#3C9ACA" stroke-width="2" stroke-miterlimit="10" d="M171.1,95.8c-3.8-3-8.6-4.8-13.8-4.8
	c-12.3,0-22.2,10-22.2,22.2s10,22.2,22.2,22.2c12.3,0,22.2-10,22.2-22.2c0-4.1-1.1-7.9-3-11.2"/>
<circle fill="none" stroke="#3C9ACA" stroke-width="2" stroke-miterlimit="10" cx="173.8" cy="98.8" r="4.1"/>
</svg>
