<?xml version="1.0" encoding="utf-8"?>
<!-- Generator: Adobe Illustrator 18.1.1, SVG Export Plug-In . SVG Version: 6.00 Build 0)  -->
<svg version="1.1" id="Layer_1" xmlns="http://www.w3.org/2000/svg" xmlns:xlink="http://www.w3.org/1999/xlink" x="0px" y="0px"
	 viewBox="31.8 90.8 56.4 58.3" enable-background="new 31.8 90.8 56.4 58.3" xml:space="preserve">
<g>
	<path fill="#3C9ACA" d="M77.7,149.2v-2.8H42.3v2.8h-7.7v-2.8h-2.8V95.6c0-2.7,2.1-4.8,4.8-4.8h46.9c2.7,0,4.8,2.1,4.8,4.8v50.7
		h-2.8v2.8H77.7z M83.3,147.1v-0.7h-3.5v0.7H83.3z M40.2,147.1v-0.7h-3.5v0.7H40.2z M86.1,144.3V106H33.9v38.2H86.1z M86.1,104v-8.3
		c0-1.5-1.2-2.7-2.7-2.7H36.6c-1.5,0-2.7,1.2-2.7,2.7v8.3H86.1z"/>
	<path fill="#3C9ACA" d="M43.1,102.3c-2.1,0-3.8-1.7-3.8-3.8s1.7-3.8,3.8-3.8s3.8,1.7,3.8,3.8S45.3,102.3,43.1,102.3z M43.1,96.7
		c-1,0-1.8,0.8-1.8,1.8s0.8,1.8,1.8,1.8s1.8-0.8,1.8-1.8S44.1,96.7,43.1,96.7z"/>
	<path fill="#3C9ACA" d="M56.3,102.3c-2.1,0-3.8-1.7-3.8-3.8s1.7-3.8,3.8-3.8s3.8,1.7,3.8,3.8S58.4,102.3,56.3,102.3z M56.3,96.7
		c-1,0-1.8,0.8-1.8,1.8s0.8,1.8,1.8,1.8s1.8-0.8,1.8-1.8S57.2,96.7,56.3,96.7z"/>
	<rect x="65.5" y="97.4" fill="#3C9ACA" width="15.2" height="2.1"/>
	<path fill="#3C9ACA" d="M60,140.7c-7.5,0-13.7-6.1-13.7-13.7s6.1-13.7,13.7-13.7s13.7,6.1,13.7,13.7S67.5,140.7,60,140.7z
		 M60,115.4c-6.4,0-11.6,5.2-11.6,11.6s5.2,11.6,11.6,11.6c6.4,0,11.6-5.2,11.6-11.6S66.4,115.4,60,115.4z"/>
	<path fill="#3C9ACA" d="M60,135.6c-4.7,0-8.5-3.8-8.5-8.5c0-4.7,3.8-8.5,8.5-8.5s8.5,3.8,8.5,8.5C68.5,131.7,64.7,135.6,60,135.6z
		 M53.6,128.1c0.5,3.1,3.2,5.4,6.4,5.4c3.4,0,6.1-2.6,6.4-5.9c-1.1,0.9-2.5,1.4-4,1.4c-1.2,0-2.5-0.4-3.5-1
		c-0.7-0.4-1.5-0.7-2.4-0.7c-0.5,0-1.1,0.1-1.6,0.3L53.6,128.1z M56.6,125.4c1.2,0,2.4,0.4,3.4,1c0.7,0.4,1.5,0.7,2.4,0.7
		c1,0,2-0.4,2.8-1l1-0.9c-0.9-2.7-3.3-4.6-6.2-4.6c-3.2,0-5.8,2.3-6.3,5.5l0.6-0.2C55,125.5,55.8,125.4,56.6,125.4z"/>
	<rect x="59" y="108.7" fill="#3C9ACA" width="2.1" height="2.1"/>
	<rect x="62.7" y="108.7" fill="#3C9ACA" width="2.1" height="2.1"/>
	<rect x="55.2" y="108.7" fill="#3C9ACA" width="2.1" height="2.1"/>
</g>
</svg>
