<?xml version="1.0" encoding="utf-8"?>
<!-- Generator: Adobe Illustrator 18.1.1, SVG Export Plug-In . SVG Version: 6.00 Build 0)  -->
<svg version="1.1" id="Layer_1" xmlns="http://www.w3.org/2000/svg" xmlns:xlink="http://www.w3.org/1999/xlink" x="0px" y="0px"
	 viewBox="112.3 99.7 75.3 50.4" enable-background="new 112.3 99.7 75.3 50.4" xml:space="preserve">
<g>
	<g>
		<path fill="#3C9ACA" d="M187.6,144.4l-0.8-5.7c-0.1-0.5-0.5-0.9-1-1c-0.1-0.2-0.2-0.5-0.4-0.7c-1.4-2-5.1-3.1-11.1-3.5
			c-2.7-0.4-10.1-1.7-12.1-3.7c0,0-0.1-0.1-0.1-0.1l0.3-0.5c0.2-0.4,0.1-0.8-0.3-1l-8.9-5c-0.2-0.1-0.4-0.1-0.6-0.1
			c-0.2,0.1-0.4,0.2-0.5,0.4l0,0l-0.8-0.8c0.3-0.2,0.4-0.6,0.3-0.9l-4-9.1c-0.2-0.4-0.6-0.6-1-0.4l-1.3,0.5l-2.8-7.3
			c-0.2-0.5-0.6-0.8-1.1-0.8h-1.4c-1.4-3.1-2.8-4.8-4.3-5.1c-1.1-0.2-1.7,0.4-1.7,0.5l-4.6,4.5c-0.1,0.1-0.1,0.1-0.1,0.2l-1.9,3.8
			c-0.4,0.3-0.7,0.6-0.7,0.6c0,0,0,0.1-0.1,0.1l-5.4,6.8l-3.2,0.3c-0.8,0.1-1.5,0.5-2,1.2c-0.3,0.5-0.4,1.1-0.3,1.6l-0.3,0.5
			c-0.1,0.1-0.2,0.3-0.2,0.5l-1.1,7.2c-0.9,2-1.4,9.2-1.5,13.6v7.9c0,0.6,0.5,1.2,1.2,1.2h43.1c0.2,0,1,0,2.2,0
			c6.1,0,23.2-0.4,28.4-4.6C187.5,145.3,187.7,144.9,187.6,144.4z M174,135.9C174.1,135.9,174.1,135.9,174,135.9
			c9,0.6,9.6,2.7,9.6,2.8c0,0.1,0,0.3,0,0.4c-4.1,1.8-23.4,2.4-32.3,2.5l1.3-1.8l6.3-2c0.7-0.2,1.4-0.6,1.8-1.2
			c0.7-0.8,0.7-1.5,0.6-1.9c-0.1-0.6-0.5-1.1-1.2-1.5l0.7-1.4C164.3,134.6,173,135.8,174,135.9z M160.6,129.2l-2,3.9
			c-0.1,0.2-0.3,0.3-0.5,0.2l-6.8-3.4c-0.2-0.1-0.3-0.3-0.2-0.5l2-4.4L160.6,129.2z M149.6,128.7c-0.4,1,0,2.1,0.9,2.6l6.8,3.4
			c0.3,0.1,0.6,0.2,0.9,0.2c0.4,0,0.7-0.1,1-0.3c0.5,0.3,0.6,0.5,0.6,0.6c0,0.2-0.1,0.5-0.3,0.6c-0.3,0.3-0.6,0.5-1.1,0.7l-6.6,2
			c-0.2,0-0.3,0.1-0.4,0.3l-2,2.7c-0.1,0.1-0.1,0.2-0.1,0.3l-34.8-1.1c0.2-4,0.5-8.4,0.9-10.6c0.3,0.1,0.8,0.1,1.3,0.1
			c0.8,0,1.7-0.1,2.7-0.7c1.7-0.9,2.9-2.7,3.5-5.3c1.5-6.8,8.7-11.6,8.8-11.6c0,0,2.9-2,5.5-1.8c0.7,1.6,1.1,3.2,1.4,4.8l-3.3,1.3
			c-0.2,0.1-0.4,0.3-0.5,0.5c-0.1,0.2,0,0.5,0.1,0.7l4.8,7.8c0.5,0.8,1.3,1.2,2.1,1.2c0.3,0,0.7-0.1,1-0.2l5.9-2.6
			c0,0,0.1,0.1,0.1,0.1l1.8,1.7c0,0,0.1,0.1,0.1,0.1L149.6,128.7z M122.5,118l0.6-0.8l1.3,0.2c-0.3,0.4-0.6,0.9-0.9,1.3
			c0,0,0,0-0.1,0l-2-0.3l0.1,0C122,118.4,122.3,118.3,122.5,118z M117.8,120.2c0.1-0.2,0.2-0.4,0.2-0.6c0.1,0,0.1,0.1,0.2,0.1
			l4.6,0.6c-0.2,0.4-0.4,0.8-0.6,1.2c-0.1-0.1-0.2-0.2-0.4-0.2l-4.3-0.6L117.8,120.2z M116.3,127.3l2.9,0.4
			c-0.1,0.1-0.3,0.2-0.4,0.3c-1.1,0.6-2.2,0.5-2.8,0.4c0.1-0.1,0.1-0.3,0.2-0.4L116.3,127.3z M120.5,126.3l-4-0.5l0.2-1l4.3,0.6
			C120.8,125.7,120.7,126,120.5,126.3z M117.1,122.2l4.5,0.6c0,0,0.1,0,0.1,0c0,0,0,0,0,0c-0.1,0.3-0.2,0.6-0.3,0.9
			c0,0.1,0,0.1,0,0.2c-0.1,0-0.1-0.1-0.2-0.1l-4.3-0.6L117.1,122.2C117.1,122.2,117.1,122.2,117.1,122.2z M149.7,121.8l-7.3,3.3
			c-0.4,0.2-0.9,0-1.2-0.4l-4.3-7l9.4-3.6L149.7,121.8z M143,113.7l-2.8,1.1c-0.5-2.4-1.4-4.9-2.7-7.6h3L143,113.7z M130.4,105.7
			l4.4-4.4c0,0,0.2-0.1,0.4-0.1c0.4,0.1,1.4,0.6,2.8,3.5h-1.8c0,0-0.1,0-0.1,0c-2.6,0.3-4.8,1.1-6.4,2L130.4,105.7z M128.2,110.9
			c0.3-0.3,3.2-3,7.6-3.7c0.3,0.6,0.6,1.2,0.9,1.7c-2.9,0.1-5.6,2.1-5.7,2.1c-0.2,0.1-2.9,1.9-5.4,4.9l-1.3-0.2L128.2,110.9z
			 M114.7,142.1l35.2,1.2c0.7,0,2.5,0,5-0.1c-2.3,1.6-3.5,3.9-3.8,4.6h-36.3L114.7,142.1z M156.7,147.7h-3.9
			c0.8-1.4,2.9-4.1,6.1-4.7c9.3-0.3,22.6-1,25.8-2.7l0.5,3.7C179.9,147.5,163,147.9,156.7,147.7z"/>
	</g>
</g>
</svg>
