<?xml version="1.0" encoding="utf-8"?>
<!-- Generator: Adobe Illustrator 18.1.1, SVG Export Plug-In . SVG Version: 6.00 Build 0)  -->
<svg version="1.1" id="Layer_1" xmlns="http://www.w3.org/2000/svg" xmlns:xlink="http://www.w3.org/1999/xlink" x="0px" y="0px"
	 viewBox="41.5 85.7 57.1 68.6" enable-background="new 41.5 85.7 57.1 68.6" xml:space="preserve">
<g>
	<g transform="translate(-236.000000, -140.000000)">
		<g transform="translate(238.000000, 140.000000)">
			<path fill="#3C9ACA" d="M52.1,139.9c-7,0-12.7-5.7-12.7-12.7v-5.8c0-0.6,0.5-1.1,1.1-1.1h23.1c0.6,0,1.1,0.5,1.1,1.1v5.8
				C64.8,134.2,59.1,139.9,52.1,139.9z M41.7,127.2c0,5.7,4.7,10.4,10.4,10.4s10.4-4.7,10.4-10.4v-4.6H41.7V127.2z"/>
			<rect x="51" y="139" fill="#3C9ACA" width="2.3" height="13.8"/>
			<path fill="#3C9ACA" d="M46.4,154.3c-0.6,0-1.1-0.5-1.1-1.1c0-0.6,0.5-1.1,1.1-1.1h11.5c0.6,0,1.1,0.5,1.1,1.1
				c0,0.6-0.5,1.1-1.1,1.1H46.4z"/>
			<path fill="#3C9ACA" d="M75.2,154.3c-3.8,0-6.9-3.1-6.9-6.9v-34.6c0-2.9,1.2-4.6,4.7-8c2.8-2.8,4-4.3,4-6.4V86.8
				c0-0.6,0.5-1.1,1.1-1.1h8.7c0.6,0,1.1,0.5,1.1,1.1v11.5c0,2.1,1.2,3.6,4,6.4c3.4,3.4,4.7,5.2,4.7,8v34.6c0,3.8-3.1,6.9-6.9,6.9
				H75.2z M79.2,98.4c0,2.9-1.2,4.6-4.7,8c-2.8,2.8-4,4.3-4,6.4v34.6c0,2.6,2.1,4.6,4.6,4.6h14.4c2.5,0,4.6-2.1,4.6-4.6v-34.6
				c0-2.1-1.2-3.6-4-6.4c-3.4-3.4-4.7-5.2-4.7-8V88h-6.4V98.4z"/>
			<rect x="78.4" y="91.5" fill="#3C9ACA" width="8.1" height="2.3"/>
			<rect x="69.7" y="120.3" fill="#3C9ACA" width="25.4" height="2.3"/>
			<rect x="69.7" y="137.6" fill="#3C9ACA" width="25.4" height="2.3"/>
		</g>
	</g>
</g>
</svg>
