<?xml version="1.0" encoding="utf-8"?>
<!-- Generator: Adobe Illustrator 18.1.1, SVG Export Plug-In . SVG Version: 6.00 Build 0)  -->
<svg version="1.1" id="Layer_1" xmlns="http://www.w3.org/2000/svg" xmlns:xlink="http://www.w3.org/1999/xlink" x="0px" y="0px"
	 viewBox="203.5 94.4 53 51.3" enable-background="new 203.5 94.4 53 51.3" xml:space="preserve">
<g>
	<path fill="#3C9ACA" d="M203.5,145.6V94.4h53v51.3H203.5z M254.6,143.7V96.3h-16.8v12.2l-4.4-1.1l-3.4,0.9l-3.5-0.9l-4.3,1.1V96.3
		h-16.8v47.5H254.6z M230,106.3l3.4-0.9l2.5,0.6v-9.7h-11.7v9.7l2.5-0.6L230,106.3z"/>
	<polygon fill="#3C9ACA" points="247.8,141.4 247.8,135.9 246.8,136.9 245.4,135.6 248.7,132.3 252,135.6 250.7,136.9 249.7,135.9 
		249.7,141.4 	"/>
	<polygon fill="#3C9ACA" points="239.3,141.4 239.3,135.9 238.3,136.9 236.9,135.6 240.2,132.3 243.5,135.6 242.2,136.9 
		241.2,135.9 241.2,141.4 	"/>
</g>
</svg>
