<?xml version="1.0" encoding="utf-8"?>
<!-- Generator: Adobe Illustrator 18.1.1, SVG Export Plug-In . SVG Version: 6.00 Build 0)  -->
<svg version="1.1" id="Layer_1" xmlns="http://www.w3.org/2000/svg" xmlns:xlink="http://www.w3.org/1999/xlink" x="0px" y="0px"
	 viewBox="118.7 88.7 62.6 62.6" enable-background="new 118.7 88.7 62.6 62.6" xml:space="preserve">
<path fill="#3C9ACA" d="M159.2,151.3c-2.3,0-4.3-1.3-5.4-3.3l-0.6-1.2l-0.8,1.1c-1.6,2.1-4.1,3.4-6.8,3.4h-14.2
	c-6.8,0-8.3-5.7-8.8-7.5l-0.1-0.4l-0.1-0.4l-0.4-0.1c-1.9-0.5-3.2-2.3-3.2-4.2c0-2,1.3-3.7,3.2-4.2l0.4-0.1l0.1-0.4
	c2.1-7,8.7-12,16-12c5.1,0,10,2.4,13.2,6.5l1.4,1.8v-25.4c0-0.5,0.4-1,1-1h12.1v-6.2l-10.5-7c-0.4-0.3-0.6-0.9-0.3-1.4
	c0.2-0.3,0.5-0.4,0.8-0.4c0.2,0,0.4,0.1,0.6,0.2l10.9,7.3c0.3,0.2,0.4,0.5,0.4,0.8v6.8h12.1c0.3,0,0.5,0.1,0.7,0.3
	c0.2,0.2,0.3,0.4,0.3,0.7v40.5c0,3.3-2.7,6-6,6H159.2z M155.1,134.3l0.5,0.2c1.7,0.7,2.8,2.3,2.8,4.1c0,1.8-1.1,3.4-2.7,4.1
	l-0.5,0.2v2.4c0,2.2,1.8,4.1,4.1,4.1h16.1c2.2,0,4.1-1.8,4.1-4.1v-25h-24.2V134.3z M124.9,144.2c1.6,4.2,4.5,5.1,6.6,5.1h14.2
	c4.4,0,6.4-4.7,6.6-5.2l0.5-1.1h-28.3L124.9,144.2z M123.1,136.2c-1.3,0-2.4,1.1-2.4,2.4s1.1,2.4,2.4,2.4l31,0
	c1.3-0.1,2.3-1.2,2.3-2.4c0-1.3-1.1-2.4-2.4-2.4H123.1z M138.5,123.8c-6,0-11.5,3.7-13.7,9.3l-0.4,1.1h28.3l-0.4-1.1
	C150,127.6,144.5,123.8,138.5,123.8z M168.2,118.3h11.1v-12.6h-11.1V118.3z M155.1,118.3h11.1v-12.6h-11.1V118.3z"/>
</svg>
