<?xml version="1.0" encoding="utf-8"?>
<!-- Generator: Adobe Illustrator 18.1.1, SVG Export Plug-In . SVG Version: 6.00 Build 0)  -->
<svg version="1.1" id="Layer_1" xmlns="http://www.w3.org/2000/svg" xmlns:xlink="http://www.w3.org/1999/xlink" x="0px" y="0px"
	 viewBox="88.2 88.2 63.6 63.6" enable-background="new 88.2 88.2 63.6 63.6" xml:space="preserve">
<g>
	<g>
		<path fill="#3C9ACA" d="M120.1,151.8c-11.9,0-23-4.5-31.5-12.6c-0.2-0.2-0.4-0.5-0.4-0.9c0-0.3,0.1-0.6,0.3-0.9
			c0.2-0.2,0.6-0.4,0.9-0.4c0.3,0,0.6,0.1,0.9,0.3c1.9,1.8,4,3.5,6.3,5l1.5,1l4.7-29.1l-4.5-0.9l-0.4,0.4c-1.1,0.9-2.4,1.4-3.7,1.4
			c-3.2,0-5.8-2.6-5.8-5.8c0-1.5,0.6-3,1.7-4.1l7-7l0.2-4.4c0-0.3,0.1-0.5,0.3-0.7c2.6-3.1,6.4-4.9,10.4-4.9c7.4,0,13.5,6,13.5,13.5
			v10.4h17.1c3.9,0,7.6,1.7,10.2,4.7c0.2,0.3,0.3,0.6,0.3,0.9c0,0.3-0.2,0.6-0.4,0.9c-0.2,0.2-0.5,0.3-0.8,0.3
			c-0.4,0-0.7-0.2-0.9-0.4c-2-2.3-4.8-3.6-7.8-3.8l-1.5-0.1l4.6,28.9l1.5-1c2.2-1.4,4.2-3,6.1-4.8c0.2-0.2,0.5-0.3,0.9-0.3
			c0.3,0,0.7,0.1,0.9,0.4c0.5,0.5,0.4,1.3,0,1.8C143,147.4,131.8,151.8,120.1,151.8z M120.1,137c-5.7,0-10.4,4.3-10.9,9.9l-0.1,1
			l1,0.2c3.3,0.8,6.6,1.2,10,1.2c3.4,0,6.7-0.4,10-1.2l1-0.2l-0.1-1C130.5,141.2,125.8,137,120.1,137z M97.8,110.8
			c0.1,0,0.2,0,0.3,0l6.4,1.3c0.7,0.1,1.1,0.8,1,1.4l-5,31.1l0.8,0.4c1.3,0.6,2.6,1.2,4,1.7l1.4,0.5l0.2-1.4
			c1.1-6.6,6.6-11.3,13.3-11.3c6.6,0,12.2,4.8,13.3,11.3l0.2,1.4l1.4-0.5c1.3-0.5,2.7-1,4-1.7l0.8-0.4l-4.8-30.1h-14.8
			c-0.7,0-1.2-0.6-1.2-1.2v-11.7c0-6.1-4.9-11-11-11c-3,0-5.8,1.2-7.9,3.3l-0.3,0.3l-0.2,4.5c0,0.3-0.1,0.6-0.4,0.8l-7.3,7.4
			c-0.6,0.6-0.9,1.5-0.9,2.3c0,1.8,1.5,3.3,3.3,3.3c1.1,0,2-0.5,2.7-1.4C97,111,97.4,110.8,97.8,110.8z"/>
	</g>
</g>
</svg>
