<?xml version="1.0" encoding="utf-8"?>
<!-- Generator: Adobe Illustrator 18.1.1, SVG Export Plug-In . SVG Version: 6.00 Build 0)  -->
<svg version="1.1" id="Layer_1" xmlns="http://www.w3.org/2000/svg" xmlns:xlink="http://www.w3.org/1999/xlink" x="0px" y="0px"
	 viewBox="119.5 89.9 61.1 60.1" enable-background="new 119.5 89.9 61.1 60.1" xml:space="preserve">
<g>
	<path fill="#3C9ACA" d="M125.5,150.1c-1.7,0-3.1-0.6-4.3-1.8c-1.3-1.3-1.9-3.1-1.8-5.1c0.3-3.4,2.7-7,6.5-9.7l12-8.6l1.2,1.6
		l-12,8.6c-3.3,2.4-5.5,5.5-5.7,8.3c-0.1,1.4,0.3,2.6,1.2,3.5c0.9,0.9,2,1.3,3.4,1.1c2.7-0.3,5.7-2.5,7.9-5.9l8.2-12.5l1.7,1.1
		l-8.2,12.5c-2.6,3.9-6.1,6.5-9.4,6.8C126,150.1,125.8,150.1,125.5,150.1z"/>
</g>
<g>
	<path fill="#3C9ACA" d="M175.9,125.2c-25.9-6.2-30.5-30.6-30.5-30.8l2-0.3c0,0.2,4.4,23.3,29,29.2L175.9,125.2z"/>
</g>
<g>
	<path fill="#3C9ACA" d="M173.9,128.4c-26.2-5.8-31.8-31.6-31.9-31.9l2-0.4c0.1,0.2,5.4,24.9,30.4,30.4L173.9,128.4z"/>
</g>
<g>
	<path fill="#3C9ACA" d="M157.3,136.4c-12.8,0-23.2-10.4-23.2-23.2c0-12.8,10.4-23.2,23.2-23.2c5.2,0,10.4,1.8,14.5,5l-1.2,1.6
		c-3.8-3-8.4-4.6-13.2-4.6c-11.7,0-21.2,9.5-21.2,21.2c0,11.7,9.5,21.2,21.2,21.2c11.7,0,21.2-9.5,21.2-21.2c0-3.8-1-7.5-2.9-10.7
		l1.7-1c2.1,3.5,3.2,7.6,3.2,11.7C180.5,126,170.1,136.4,157.3,136.4z"/>
</g>
<g>
	<path fill="#3C9ACA" d="M173.8,103.9c-2.8,0-5.1-2.3-5.1-5.1s2.3-5.1,5.1-5.1s5.1,2.3,5.1,5.1S176.6,103.9,173.8,103.9z
		 M173.8,95.7c-1.7,0-3.1,1.4-3.1,3.1s1.4,3.1,3.1,3.1s3.1-1.4,3.1-3.1S175.5,95.7,173.8,95.7z"/>
</g>
</svg>
