<?xml version="1.0" encoding="utf-8"?>
<!-- Generator: Adobe Illustrator 18.1.1, SVG Export Plug-In . SVG Version: 6.00 Build 0)  -->
<svg version="1.1" id="Layer_1" xmlns="http://www.w3.org/2000/svg" xmlns:xlink="http://www.w3.org/1999/xlink" x="0px" y="0px"
	 viewBox="140.1 97.6 59.7 44.8" enable-background="new 140.1 97.6 59.7 44.8" xml:space="preserve">
<path fill="#3C9ACA" d="M141.2,142.4c-0.6,0-1.1-0.5-1.1-1.1V109c0-0.4,0.2-0.8,0.6-1l19.2-10c0.2-0.1,0.3-0.1,0.5-0.1
	c0.2,0,0.4,0.1,0.6,0.2c0.3,0.2,0.5,0.6,0.5,0.9v8.2l17.6-9.1c0.2-0.1,0.3-0.1,0.5-0.1c0.2,0,0.4,0.1,0.6,0.2
	c0.3,0.2,0.5,0.6,0.5,0.9v14.3h8.4V98.7c0-0.6,0.5-1.1,1.1-1.1h8.6c0.6,0,1.1,0.5,1.1,1.1v42.6c0,0.6-0.5,1.1-1.1,1.1H141.2z
	 M192.3,128.6c0.6,0,1.1,0.5,1.1,1.1v10.5h4.3V99.8h-6.4v14.6c0,0.6-0.5,1.1-1.1,1.1h-9.4v24.7h4.2v-10.5c0-0.6,0.5-1.1,1.1-1.1
	H192.3z M187,140.2h4.2v-9.4H187V140.2z M161.5,115.1v25.1h17v-34L161.5,115.1z M142.3,115.1v25.1h17v-34L142.3,115.1z M161.5,109.6
	v2.9l17-8.8v-2.9L161.5,109.6z M142.3,109.6v2.9l17-8.8v-2.9L142.3,109.6z"/>
<rect x="146.7" y="124.9" fill="#3C9ACA" width="2.2" height="4.4"/>
<rect x="152.5" y="124.9" fill="#3C9ACA" width="2.2" height="4.4"/>
<rect x="166" y="124.9" fill="#3C9ACA" width="2.2" height="4.4"/>
<rect x="171.8" y="124.9" fill="#3C9ACA" width="2.2" height="4.4"/>
</svg>
