<?xml version="1.0" encoding="utf-8"?>
<!-- Generator: Adobe Illustrator 18.1.1, SVG Export Plug-In . SVG Version: 6.00 Build 0)  -->
<svg version="1.1" id="Layer_1" xmlns="http://www.w3.org/2000/svg" xmlns:xlink="http://www.w3.org/1999/xlink" x="0px" y="0px"
	 viewBox="0 0 219.3 72.9" enable-background="new 0 0 219.3 72.9" xml:space="preserve">
<g>
	<path fill="#6399C7" d="M8.9,15.1c0,0,3.7-4.5,6.8-1.5l9.8,7.6l-24,25.7c-0.1,0.1-0.3,0-0.3-0.1C1,44-0.3,27,0.1,25.2
		C1,23.3,8.9,15.1,8.9,15.1z"/>
	<path fill="#FFFFFF" d="M16.2,11.7c0,0,20.7-1.5,22.2-1.5c1.8,0,3.5,1.2,10.9,7.9c-5.8,6.1-11.1,11.5-11.1,11.5L16.2,11.7z"/>
	<path fill="#D13D43" d="M12.2,37.8l-7.8,8.6c0,0-2.6,2.2-0.2,4.3c2.4,2.1,26,22.2,26,22.2l44.6-49L77.7,0l-49,51.2L12.2,37.8z"/>
	<g>
		<g>
			<path fill="#FFFFFF" d="M89.1,49.1c-0.8,0-1.5,0.3-1.9,0.8c-0.5,0.6-0.7,1.3-0.7,2.3c0,1,0.2,1.7,0.7,2.3
				c0.5,0.5,1.1,0.8,1.9,0.8c0.5,0,1.1-0.1,1.8-0.3v0.8c-0.5,0.2-1.1,0.3-1.9,0.3c-1.1,0-1.9-0.3-2.5-1c-0.6-0.7-0.9-1.6-0.9-2.9
				c0-0.8,0.1-1.5,0.4-2c0.3-0.6,0.7-1,1.2-1.3c0.5-0.3,1.2-0.5,1.9-0.5c0.8,0,1.5,0.1,2,0.4l-0.4,0.8
				C90.2,49.2,89.7,49.1,89.1,49.1z"/>
			<path fill="#FFFFFF" d="M94.7,56.1c-0.8,0-1.5-0.3-1.9-0.8c-0.5-0.5-0.7-1.2-0.7-2.1c0-0.9,0.2-1.6,0.7-2.2
				c0.4-0.5,1-0.8,1.8-0.8c0.7,0,1.2,0.2,1.6,0.7c0.4,0.5,0.6,1.1,0.6,1.8v0.5h-3.8c0,0.7,0.2,1.2,0.5,1.5c0.3,0.3,0.8,0.5,1.3,0.5
				c0.6,0,1.2-0.1,1.8-0.4v0.8c-0.3,0.1-0.6,0.2-0.8,0.3C95.4,56,95.1,56.1,94.7,56.1z M94.5,50.9c-0.4,0-0.8,0.1-1.1,0.4
				c-0.3,0.3-0.4,0.7-0.5,1.2h2.9c0-0.5-0.1-1-0.4-1.2S94.9,50.9,94.5,50.9z"/>
			<path fill="#FFFFFF" d="M100.8,56.1c-0.4,0-0.7-0.1-1-0.2c-0.3-0.1-0.5-0.3-0.8-0.6H99c0,0.3,0.1,0.6,0.1,0.9v2.3h-0.8v-8.2h0.7
				l0.1,0.8h0c0.2-0.3,0.5-0.5,0.8-0.7s0.6-0.2,1-0.2c0.7,0,1.3,0.3,1.7,0.8c0.4,0.5,0.6,1.2,0.6,2.1c0,0.9-0.2,1.6-0.6,2.2
				C102,55.8,101.5,56.1,100.8,56.1z M100.6,50.9c-0.6,0-1,0.2-1.2,0.5c-0.3,0.3-0.4,0.8-0.4,1.5v0.2c0,0.8,0.1,1.4,0.4,1.7
				c0.3,0.3,0.7,0.5,1.2,0.5c0.5,0,0.9-0.2,1.1-0.6c0.3-0.4,0.4-0.9,0.4-1.6c0-0.7-0.1-1.2-0.4-1.6
				C101.5,51.1,101.1,50.9,100.6,50.9z"/>
			<path fill="#FFFFFF" d="M108.3,51h-1.8V56h-0.8V51h-1.8v-0.7h4.4V51z"/>
			<path fill="#FFFFFF" d="M110.1,50.3v3.6l0,0.9l0,0.3l3-4.8h1V56h-0.8v-3.4l0-0.7l0-0.7l-3,4.8h-1v-5.6H110.1z"/>
			<path fill="#FFFFFF" d="M121.9,53.1c0,0.9-0.2,1.5-0.7,2c-0.5,0.5-1.1,0.8-2,0.9v2.4h-0.8V56c-0.8-0.1-1.5-0.4-2-0.9
				c-0.5-0.5-0.7-1.2-0.7-2c0-0.9,0.2-1.5,0.7-2c0.5-0.5,1.2-0.8,2-0.9v-2.3h0.8v2.3c0.8,0.1,1.5,0.4,2,0.9S121.9,52.3,121.9,53.1z
				 M116.5,53.1c0,0.7,0.1,1.2,0.4,1.5c0.3,0.4,0.8,0.6,1.4,0.7v-4.4c-0.6,0.1-1.1,0.3-1.4,0.6C116.6,51.9,116.5,52.4,116.5,53.1z
				 M121,53.1c0-1.3-0.6-2-1.8-2.2v4.4c0.6-0.1,1.1-0.3,1.4-0.7C120.8,54.3,121,53.8,121,53.1z"/>
			<path fill="#FFFFFF" d="M124.1,50.3v3.6l0,0.9l0,0.3l3-4.8h1V56h-0.8v-3.4l0-0.7l0-0.7l-3,4.8h-1v-5.6H124.1z"/>
			<path fill="#FFFFFF" d="M133.1,50.3h0.9l-2.4,2.7l2.6,2.9h-1l-2.5-2.9V56h-0.8v-5.6h0.8v2.7L133.1,50.3z"/>
			<path fill="#FFFFFF" d="M138.7,56l-0.2-0.8h0c-0.3,0.4-0.6,0.6-0.8,0.7c-0.3,0.1-0.6,0.2-1,0.2c-0.5,0-1-0.1-1.3-0.4
				s-0.5-0.7-0.5-1.2c0-1.1,0.9-1.7,2.7-1.8l0.9,0v-0.3c0-0.4-0.1-0.8-0.3-1c-0.2-0.2-0.5-0.3-0.9-0.3c-0.5,0-1,0.1-1.6,0.4
				l-0.3-0.7c0.3-0.2,0.6-0.3,0.9-0.4c0.3-0.1,0.7-0.1,1-0.1c0.7,0,1.2,0.1,1.5,0.4c0.3,0.3,0.5,0.8,0.5,1.4V56H138.7z M136.8,55.3
				c0.5,0,0.9-0.1,1.2-0.4c0.3-0.3,0.4-0.7,0.4-1.2v-0.5l-0.8,0c-0.7,0-1.1,0.1-1.4,0.3c-0.3,0.2-0.4,0.5-0.4,0.9
				c0,0.3,0.1,0.5,0.3,0.7C136.2,55.3,136.4,55.3,136.8,55.3z"/>
			<path fill="#FFFFFF" d="M146.4,57.9h-0.8V56H141v-5.6h0.8v4.9h2.9v-4.9h0.8v4.9h0.8V57.9z"/>
			<path fill="#FFFFFF" d="M148.3,50.3v3.6l0,0.9l0,0.3l3-4.8h1V56h-0.8v-3.4l0-0.7l0-0.7l-3,4.8h-1v-5.6H148.3z"/>
			<path fill="#FFFFFF" d="M158.9,53.1c0,0.9-0.2,1.6-0.7,2.2c-0.5,0.5-1.1,0.8-1.9,0.8c-0.5,0-0.9-0.1-1.3-0.4
				c-0.4-0.2-0.7-0.6-0.9-1c-0.2-0.4-0.3-1-0.3-1.6c0-0.9,0.2-1.6,0.7-2.1c0.5-0.5,1.1-0.8,1.9-0.8c0.8,0,1.4,0.3,1.8,0.8
				C158.6,51.5,158.9,52.2,158.9,53.1z M154.6,53.1c0,0.7,0.1,1.3,0.4,1.6c0.3,0.4,0.7,0.6,1.2,0.6c0.5,0,1-0.2,1.3-0.6
				c0.3-0.4,0.4-0.9,0.4-1.6c0-0.7-0.1-1.3-0.4-1.6c-0.3-0.4-0.7-0.6-1.3-0.6c-0.5,0-1,0.2-1.2,0.6
				C154.8,51.9,154.6,52.4,154.6,53.1z"/>
			<path fill="#FFFFFF" d="M161.2,50.3v2.4h3.1v-2.4h0.8V56h-0.8v-2.5h-3.1V56h-0.8v-5.6H161.2z"/>
			<path fill="#FFFFFF" d="M167.7,50.3v2.4h3.1v-2.4h0.8V56h-0.8v-2.5h-3.1V56h-0.8v-5.6H167.7z"/>
			<path fill="#FFFFFF" d="M174.3,52.6h1.5c0.7,0,1.2,0.1,1.6,0.4c0.3,0.3,0.5,0.7,0.5,1.2c0,0.6-0.2,1-0.5,1.3
				c-0.4,0.3-0.9,0.4-1.6,0.4h-2.3v-5.6h0.8V52.6z M174.3,53.4v1.9h1.4c0.9,0,1.3-0.3,1.3-1c0-0.3-0.1-0.5-0.3-0.7
				c-0.2-0.1-0.6-0.2-1.1-0.2H174.3z M179.6,56h-0.8v-5.6h0.8V56z"/>
			<path fill="#FFFFFF" d="M182.2,50.3v3.6l0,0.9l0,0.3l3-4.8h1V56h-0.8v-3.4l0-0.7l0-0.7l-3,4.8h-1v-5.6H182.2z M183.8,49.6
				c-0.6,0-1.1-0.1-1.4-0.4c-0.3-0.2-0.4-0.6-0.5-1.2h0.8c0,0.4,0.1,0.6,0.3,0.7s0.4,0.2,0.8,0.2c0.3,0,0.6-0.1,0.8-0.2
				c0.2-0.2,0.3-0.4,0.3-0.7h0.8c0,0.5-0.2,0.9-0.5,1.2C184.9,49.4,184.4,49.6,183.8,49.6z"/>
			<path fill="#FFFFFF" d="M196.1,57.9h-0.8V56h-4.6v-5.6h0.8v4.9h2.9v-4.9h0.8v4.9h0.8V57.9z"/>
			<path fill="#FFFFFF" d="M199.5,56.1c-0.8,0-1.5-0.3-1.9-0.8c-0.5-0.5-0.7-1.2-0.7-2.1c0-0.9,0.2-1.6,0.7-2.2
				c0.4-0.5,1-0.8,1.8-0.8c0.7,0,1.2,0.2,1.6,0.7c0.4,0.5,0.6,1.1,0.6,1.8v0.5h-3.8c0,0.7,0.2,1.2,0.5,1.5c0.3,0.3,0.8,0.5,1.3,0.5
				c0.6,0,1.2-0.1,1.8-0.4v0.8c-0.3,0.1-0.6,0.2-0.8,0.3C200.2,56,199.9,56.1,199.5,56.1z M199.3,50.9c-0.4,0-0.8,0.1-1.1,0.4
				c-0.3,0.3-0.4,0.7-0.5,1.2h2.9c0-0.5-0.1-1-0.4-1.2C200.1,51.1,199.7,50.9,199.3,50.9z"/>
			<path fill="#FFFFFF" d="M203.8,50.3v2.4h3.1v-2.4h0.8V56h-0.8v-2.5h-3.1V56H203v-5.6H203.8z"/>
			<path fill="#FFFFFF" d="M213.3,51h-1.8V56h-0.8V51h-1.8v-0.7h4.4V51z"/>
			<path fill="#FFFFFF" d="M217,56.1c-0.4,0-0.7-0.1-1-0.2c-0.3-0.1-0.5-0.3-0.8-0.6h-0.1c0,0.3,0.1,0.6,0.1,0.9v2.3h-0.8v-8.2h0.7
				l0.1,0.8h0c0.2-0.3,0.5-0.5,0.8-0.7c0.3-0.1,0.6-0.2,1-0.2c0.7,0,1.3,0.3,1.7,0.8s0.6,1.2,0.6,2.1c0,0.9-0.2,1.6-0.6,2.2
				C218.2,55.8,217.7,56.1,217,56.1z M216.8,50.9c-0.6,0-1,0.2-1.2,0.5c-0.3,0.3-0.4,0.8-0.4,1.5v0.2c0,0.8,0.1,1.4,0.4,1.7
				c0.3,0.3,0.7,0.5,1.2,0.5c0.5,0,0.9-0.2,1.1-0.6c0.3-0.4,0.4-0.9,0.4-1.6c0-0.7-0.1-1.2-0.4-1.6
				C217.7,51.1,217.3,50.9,216.8,50.9z"/>
		</g>
	</g>
</g>
<g>
	<path fill="#FFFFFF" d="M91,33.7v7.7h-4.9V19.1h7.7c5.5,0,8.3,2.4,8.3,7.1c0,2.2-0.8,4-2.4,5.4c-1.6,1.4-3.7,2.1-6.3,2.1H91z
		 M91,22.9v6.9H93c2.6,0,3.9-1.2,3.9-3.5c0-2.3-1.3-3.4-3.9-3.4H91z"/>
	<path fill="#FFFFFF" d="M114.5,41.7c-3.1,0-5.7-1-7.6-3.1c-2-2.1-3-4.8-3-8.1c0-3.5,1-6.4,3-8.5c2-2.2,4.7-3.3,8-3.3
		c3.1,0,5.6,1,7.6,3.1c1.9,2.1,2.9,4.8,2.9,8.2c0,3.5-1,6.3-3,8.4C120.3,40.6,117.7,41.7,114.5,41.7z M114.7,23
		c-1.7,0-3.1,0.7-4.1,2c-1,1.3-1.5,3.1-1.5,5.2c0,2.2,0.5,3.9,1.5,5.2c1,1.3,2.3,1.9,4,1.9c1.7,0,3-0.6,4-1.9c1-1.2,1.5-3,1.5-5.2
		c0-2.3-0.5-4.1-1.4-5.4C117.7,23.7,116.4,23,114.7,23z"/>
	<path fill="#FFFFFF" d="M144.6,40.5c-1.6,0.8-3.7,1.2-6.2,1.2c-3.4,0-6-1-7.9-3c-1.9-2-2.9-4.7-2.9-8c0-3.6,1.1-6.4,3.2-8.6
		c2.2-2.2,5-3.3,8.4-3.3c2.1,0,3.9,0.3,5.4,0.8v4.8c-1.5-0.9-3.1-1.3-5-1.3c-2.1,0-3.7,0.7-5,2c-1.3,1.3-1.9,3.1-1.9,5.3
		c0,2.1,0.6,3.9,1.8,5.1c1.2,1.3,2.8,1.9,4.8,1.9c1.9,0,3.7-0.5,5.3-1.4V40.5z"/>
	<path fill="#FFFFFF" d="M163.7,23.2h-6.2v18.1h-4.9V23.2h-6.2v-4.1h17.4V23.2z"/>
	<path fill="#FFFFFF" d="M179.8,41.3h-13.1V19.1h12.6v4.1h-7.7v4.9h7.1v4.1h-7.1v5.1h8.2V41.3z"/>
	<path fill="#FFFFFF" d="M198.9,40.5c-1.6,0.8-3.7,1.2-6.2,1.2c-3.4,0-6-1-7.9-3c-1.9-2-2.9-4.7-2.9-8c0-3.6,1.1-6.4,3.2-8.6
		c2.2-2.2,5-3.3,8.4-3.3c2.1,0,3.9,0.3,5.4,0.8v4.8c-1.5-0.9-3.1-1.3-5-1.3c-2.1,0-3.7,0.7-5,2c-1.3,1.3-1.9,3.1-1.9,5.3
		c0,2.1,0.6,3.9,1.8,5.1c1.2,1.3,2.8,1.9,4.8,1.9c1.9,0,3.7-0.5,5.3-1.4V40.5z"/>
	<path fill="#FFFFFF" d="M218.1,23.2h-6.2v18.1h-4.9V23.2h-6.2v-4.1h17.4V23.2z"/>
</g>
</svg>
