<?xml version="1.0" encoding="UTF-8"?><!DOCTYPE svg PUBLIC "-//W3C//DTD SVG 1.1//EN" "http://www.w3.org/Graphics/SVG/1.1/DTD/svg11.dtd"><svg xmlns="http://www.w3.org/2000/svg" style="display: none;"><symbol id="adv-consult" viewBox="106.6 230.4 63 63.3"><g><path d="M118.9 254.9h38.4v2.8h-38.4zM118.9 260.6h38.4v2.8h-38.4zM118.9 266.6h32v2.8h-32z"/><path d="M161 283.7c5.5-5.9 8.5-13.5 8.5-21.6 0-17.4-14.1-31.6-31.6-31.6s-31.4 14.3-31.4 31.7 14.1 31.6 31.6 31.6c6 0 11.7-1.7 16.7-4.8l6.2 3.7v-9zm-2.6 4l-3.7-2.2-.8.5c-4.7 3.2-10.2 4.8-15.9 4.8-15.9 0-28.8-12.9-28.8-28.8s13-28.8 28.9-28.8 28.8 12.9 28.8 28.8c0 7.5-2.9 14.6-8.1 20.1l-.4.4v5.2z"/></g></symbol><symbol id="adv-experience" viewBox="105.6 229.6 66.7 66.7"><path d="M172.2 247.9c0-1.5-.6-2.9-1.6-3.9s-2.4-1.6-3.9-1.6h-16.9v-4.5c0-4.6-3.7-8.3-8.3-8.3h-5.2c-4.6 0-8.3 3.7-8.3 8.3v4.5h-16.9c-3.1 0-5.5 2.5-5.5 5.5v16.3h1.6v26.5c0 3.1 2.5 5.5 5.5 5.5h52.4c3.1 0 5.5-2.5 5.5-5.5v-26.5h1.6v-16.3zm-41.6-10c0-1.6.6-3 1.7-4 1-1 2.5-1.7 4-1.7h5.2c1.6 0 3 .6 4 1.7 1 1 1.7 2.5 1.7 4v4.5h-16.7v-4.5zm-22.5 10c0-.8.3-1.6.9-2.1.5-.5 1.3-.9 2.1-.9h55.6c1.6 0 3 1.3 3 3v13.7H145v-4.5h-12.2v4.5h-24.7v-13.7zm27.3 17.6h7.1v4.5h-7.1v-4.5zm0-2.6v-3.2h7.1v3.2h-7.1zm31.8 29.9c-.5.5-1.3.9-2.1.9h-52.4c-.8 0-1.6-.3-2.1-.9-.5-.5-.9-1.3-.9-2.1v-26.5h23.1v8.3H145v-8.4h23.1v26.5c0 .9-.4 1.7-.9 2.2z"/></symbol><symbol id="adv-manager" viewBox="109.8 230.9 58.2 64.1"><path d="M138.9 230.838c-8.9 0-16 7.6-16 16.7 0 3.9.9 7.4 3.2 10.4l.3.3c.6 2 1.4 3.9 2.3 5.6l-3.1 3.1-7.6 3.4c-4.7 2.1-8.1 6.2-8.1 12.2v10.9c0 .8.7 1.5 1.5 1.5h55.3c.8 0 1.5-.7 1.5-1.5v-10.9c0-6-3.4-10.1-8.1-12.2l-7.6-3.4-3.1-3.1c.9-1.7 1.6-3.5 2.3-5.6.1-.1.2-.1.3-.3 2.3-2.9 3.2-6.5 3.2-10.4-.3-9.1-7.4-16.7-16.3-16.7zm0 3c7.2 0 13.1 6.1 13.1 13.8 0 .3-.1.5-.1.8-.2-.9-.5-1.7-.8-2.4-.3-.8-.7-1.4-1.3-2s-1.4-.8-2.2-.8c-1.6 0-2.8.6-4 1.1-1.2.5-2.5.9-4.7 1.1-2.2-.2-3.5-.6-4.7-1.1-1.2-.5-2.4-1.1-4-1.1-.8 0-1.6.3-2.2.8s-1 1.2-1.3 2c-.3.7-.5 1.5-.8 2.4 0-.3-.1-.5-.1-.8 0-7.7 5.9-13.8 13.1-13.8zm-8.9 12.3h.1c.9 0 1.6.3 2.9.9 1.3.5 3.1 1.1 5.7 1.3h.2c2.6-.2 4.4-.8 5.7-1.3 1.3-.5 2-.9 2.9-.9.1 0 .1 0 .3.1.1.1.3.4.6.9.4 1 .9 2.9 1.3 5.4-.9 4.8-2.4 9-4.4 11.8-2 2.9-4.2 4.3-6.5 4.3s-4.5-1.4-6.5-4.3c-2-2.8-3.5-7-4.4-11.8.4-2.5.9-4.4 1.3-5.4.2-.5.4-.8.6-.9.2 0 .2-.1.2-.1zm.3 20.2c1.5 2.1 3.3 3.7 5.3 4.6l-4.7 3.5-2.6-6.1 2-2zm17.2 0l2 2-2.6 6.1-4.7-3.5c2.1-.9 3.9-2.5 5.3-4.6zm-21.7 3.7l3 7.3c.3.8 1.5 1.1 2.2.6l2.9-2.1-3.5 16.3h-17.7v-9.5c0-5 2.4-7.8 6.4-9.6l6.7-3zm26.2 0l6.7 3c4 1.8 6.4 4.6 6.4 9.6v9.5h-17.7l-3.5-16.3 2.9 2.1c.7.5 1.9.2 2.2-.6l3-7.3zm-13.1 2l1.5 1.1 4 18.9h-11l4-18.9 1.5-1.1z"/></symbol><symbol id="adv-shipping" viewBox="92.9 159.8 88 71.9"><path d="M177.5 201.5l-22.3 17.3-.1.1c-1 .9-2.1 1.5-3.4 1.7-.5.1-1.1.2-1.6.2l-19.3 2.9c-2.8.4-5.7.6-8.5.6h-19.1v-24.2c1.8-1.3 4.7-3.1 7.7-4.2h.1c.9-.3 1.7-.5 2.4-.7h.1c.3-.1.6-.1.9-.1h2c.2 0 .4.1.6.1.1 0 .2 0 .4.1s.4.1.6.2c.1 0 .2.1.3.1.3.1.5.3.8.5 2.8 2.1 6.4 3.3 10.2 3.3h5.7c3.3 0 6.4 1.6 8.1 4.2.2.2.3.4.4.7v.1c.1.2.2.3.2.5v.1c0 .1.1.3.1.4v.4c0 .1-.1.1-.1.2l-.1.1-.1.1c-.1 0-.1.1-.2.1s-.1.1-.2.1-.1.1-.2.1-.2.1-.3.1h-.2c-.1 0-.3.1-.4.1h-.2c-.1 0-.3 0-.4.1-.5.1-1 .1-1.6.1H124c-4.6 0-7.3 2.2-7.3 5.9 0 .8.7 1.5 1.5 1.5s1.5-.7 1.5-1.5c0-.7 0-2.9 4.4-2.9H148.2c.7 0 1.4-.1 2.1-.1h.1c.6 0 1.2-.1 1.8-.2.2 0 .4-.1.6-.1.4-.1.8-.1 1.2-.2.2 0 .4-.1.6-.1.4-.1.7-.2 1-.3.2 0 .3-.1.5-.1.5-.2.9-.3 1.3-.5l3.9-2.4 8.7-5.3c6-3.2 6.7-2.3 7.9-.6.2.2.1 1-.4 1.5zm-77.2 27.3h-4.4v-32.3h4.4v32.3zm11.7-36.2v-25.4c0-.8.7-1.5 1.5-1.5h13.2v9c0 1.1.6 2 1.6 2.5s2.1.3 2.9-.3l4.3-3.4 4.3 3.4c.2.2.5.3.8.4.1 0 .2 0 .3.1.2 0 .4.1.6.1H142.1c.2 0 .5-.1.7-.2 1-.5 1.6-1.4 1.6-2.5v-9h13.2c.8 0 1.5.7 1.5 1.5v36.4l-3.1 1.9c-1.9 1-5.7 1.3-9.5 1.4.7-1.4.4-3-.9-4.9-2.3-3.4-6.2-5.5-10.5-5.5h-5.7c-3.1 0-6.1-1-8.4-2.7-.3-.2-.5-.4-.8-.5-.1-.1-.2-.1-.3-.2-.2-.1-.3-.2-.5-.2-.1-.1-.3-.1-.4-.2-.1-.1-.3-.1-.4-.1-.3-.1-.7-.2-1.1-.3h-.1c-.2 0-.5-.1-.7-.1h-.2c-.7 0-1.5 0-2.2.1h-.2c-.4.1-.8.1-1.3.2-.1 0-.2 0-.3.1-.3-.1-.4-.1-.5-.1zm17.6-29.8h11.7v11.6l-5-4c-.5-.4-1.3-.4-1.8 0l-4.9 4v-11.6zm50.5 35.1c-2.6-3.6-5.2-3.6-11.7-.2l-6.6 4v-34.6c0-2.4-2-4.4-4.4-4.4h-13.2v-1.5c0-.8-.7-1.5-1.5-1.5H128c-.8 0-1.5.7-1.5 1.5v1.5h-13.2c-2.4 0-4.4 2-4.4 4.4v26.4c-2.3.9-4.4 2.1-5.9 3.1v-3.1H92.9v38.1h10.3v-4.4h19.1c3 0 6-.2 9-.7l19-2.9c.7 0 1.4-.1 2-.2 1.8-.2 3.4-1.1 4.8-2.4l22.2-17.3c1.8-1.4 2.1-3.9.8-5.8z"/></symbol><symbol id="branch-alcohol" viewBox="41.5 85.7 57.1 68.6"><g><path d="M54.1 139.9c-7 0-12.7-5.7-12.7-12.7v-5.8c0-.6.5-1.1 1.1-1.1h23.1c.6 0 1.1.5 1.1 1.1v5.8c.1 7-5.6 12.7-12.6 12.7zm-10.4-12.7c0 5.7 4.7 10.4 10.4 10.4s10.4-4.7 10.4-10.4v-4.6H43.7v4.6z"/><path d="M53 139h2.3v13.8H53z"/><path d="M48.4 154.3c-.6 0-1.1-.5-1.1-1.1 0-.6.5-1.1 1.1-1.1h11.5c.6 0 1.1.5 1.1 1.1 0 .6-.5 1.1-1.1 1.1H48.4zM77.2 154.3c-3.8 0-6.9-3.1-6.9-6.9v-34.6c0-2.9 1.2-4.6 4.7-8 2.8-2.8 4-4.3 4-6.4V86.8c0-.6.5-1.1 1.1-1.1h8.7c.6 0 1.1.5 1.1 1.1v11.5c0 2.1 1.2 3.6 4 6.4 3.4 3.4 4.7 5.2 4.7 8v34.6c0 3.8-3.1 6.9-6.9 6.9H77.2zm4-55.9c0 2.9-1.2 4.6-4.7 8-2.8 2.8-4 4.3-4 6.4v34.6c0 2.6 2.1 4.6 4.6 4.6h14.4c2.5 0 4.6-2.1 4.6-4.6v-34.6c0-2.1-1.2-3.6-4-6.4-3.4-3.4-4.7-5.2-4.7-8V88H81v10.4z"/><path d="M80.4 91.5h8.1v2.3h-8.1zM71.7 120.3h25.4v2.3H71.7zM71.7 137.6h25.4v2.3H71.7z"/></g></symbol><symbol id="branch-auto" viewBox="201.5 92.9 77 46.6"><path d="M222 139.538c-.4 0-.9-.2-1.1-.7l-2.4-4.9H211c-.7 0-1.2-.5-1.2-1.2v-11.3h-5.9v8.5c0 .7-.5 1.2-1.2 1.2-.3 0-.6-.1-.8-.4-.2-.2-.3-.5-.3-.8v-19.4c0-.7.5-1.2 1.2-1.2.3 0 .6.1.9.4s.3.5.3.8v8.5h5.9v-11.3c0-.7.5-1.2 1.2-1.2h4.3v-4.3c0-.7.5-1.2 1.2-1.2h12.6v-5.9h-12.6c-.7 0-1.2-.5-1.2-1.1 0-.7.5-1.2 1.1-1.2h27.8c.7 0 1.2.5 1.2 1.2 0 .6-.5 1.2-1.2 1.2h-12.7v5.9h12.7c.7 0 1.2.5 1.2 1.2v4.3h9.9c.4 0 .8.2 1 .6l5.2 9.1h6.4v-8.5c0-.7.5-1.2 1.2-1.2h8.3c.7 0 1.2.5 1.2 1.2v27.6c0 .7-.5 1.2-1.2 1.2H269c-.7 0-1.2-.5-1.2-1.2v-8.5h-5.9v11.3c0 .7-.5 1.2-1.2 1.2H222zm-9.8-7.9h7.1c.5 0 .9.3 1.1.7l2.4 4.9h36.8v-11.3c0-.7.5-1.2 1.2-1.2h8.3c.7 0 1.2.5 1.2 1.2v8.5h5.9v-25.3h-5.9v8.5c0 .7-.5 1.2-1.2 1.2h-8.3c-.4 0-.8-.2-1-.6l-5.2-9.1h-10.4c-.7 0-1.2-.5-1.2-1.2v-4.3h-25.3v4.3c0 .7-.5 1.2-1.2 1.2h-4.3v22.5z"/></symbol><symbol id="branch-bad" viewBox="121 90.3 37.9 60.2"><path d="M126.2 150.5c-2.8 0-5.1-2.3-5.1-5.1v-32.1c0-2.8 2.3-5.1 5.1-5.1h27.7c2.8 0 5.1 2.3 5.1 5.1v32.1c.1 1.3-.4 2.5-1.3 3.5-1 1.1-2.4 1.7-3.9 1.7h-27.6zm0-40.6c-1.7 0-3.1 1.4-3.1 3.1v32.1c0 1.7 1.4 3.1 3.1 3.1h27.7c1.7 0 3.1-1.4 3.1-3.1V113c0-1.7-1.4-3.1-3.1-3.1h-27.7z"/><path d="M129.2 109.9c-.5 0-1.1-.4-1.1-1.1v-7.4c0-.5.4-1.1 1.1-1.1h20.5c.5 0 1.1.4 1.1 1.1v7.4c0 .5-.6 1.1-1.1 1.1h-20.5zm1.1-2h18.5v-5.6h-18.5v5.6z"/><path d="M125 102.3c-.5 0-.9-.4-.9-.9V94c0-2 1.7-3.7 3.7-3.7h23.3c2 0 3.7 1.7 3.7 3.7v7.4c.1.3 0 .4-.1.5-.2.2-.5.4-.8.4H125zm2.8-10c-.9 0-1.7.8-1.7 1.7v6.3H153V94c0-.9-.8-1.7-1.7-1.7h-23.5zM138.9 123.4h2v13.3h-2z"/><path d="M133.3 129h13.2v2h-13.2z"/></symbol><symbol id="branch-cleaning" viewBox="143 88.5 32.3 64.3"><path d="M165.9 88.5l-15.2.2h-4.9c-1.5 0-2.7 1.2-2.7 2.7v2.5c0 1.5 1.2 2.1 2 2.5l2.3.8c0 1-.5 2.9-1.3 4.7-.1.2-.4.4-.7.7-.6.4-1.3 1-1.5 2.1-.2 1 .2 1.8 1 2.3.5.3 1.1.4 1.8.4 1.1 0 2.2-.4 2.9-.9 2.1-1.6 3.1-4.2 3.9-6.7 0-.1.1-.3.1-.4l2.6.9V102.2c-1.2.4-2 1.5-2 2.9V109.8c0 .6.5 1.1 1.1 1.1h.3v2.6c0 3.9-4.3 7.7-6.7 8.7-3.2 1.4-3.9 5.5-3.9 5.7l-.6 21.8c0 1.7 1.4 3.1 3.1 3.1H168.7c1.7 0 3.1-1.4 3.1-3.1v-24.5c0-.1-.2-2.9-1.2-5.2-.4-.8-.9-1.8-1.4-2.7-.7-1.3-1.7-2.9-1.7-3.7v-2.7h.2c.6 0 1.1-.5 1.1-1.1v-.2V105c0-1.5-1.1-2.8-2.6-3v-2.9c.5-.2 2.2-.2 3.2-.2 2.2.1 4.2.1 5.3-1 .3-.3.6-.9.5-1.7v-.7l-9.3-7zm3.6 8.4c-2.1-.1-3.9-.1-4.9.8-.4.4-.6.9-.6 1.5v3h-5.6v-3.3l-7.8-2.8-4.3-1.5h-.2c-.3-.1-.7-.3-.8-.4V91.4c0-.2.2-.4.4-.4h4.9l14.5-.2 7.7 5.9c-.7.2-2.3.2-3.3.2zm-21.4 7.9c-.5.4-1.6.5-2 .4.1-.2.3-.4.7-.8.5-.4 1-.8 1.3-1.5.3-.8 1.2-2.9 1.5-4.8l1.8.6c-.7 2.3-1.6 4.8-3.3 6.1zm17.2 8.9c0 1.4 1 3.1 2 4.8.5.8 1 1.7 1.3 2.4.8 1.8 1 4.1 1 4.4v24.4c0 .4-.3.8-.8.8h-21.2c-.4 0-.8-.3-.8-.7l.6-21.5c.1-.4.6-3 2.5-3.8 2.7-1.1 8.1-5.6 8.1-10.8V111h7.4c-.1.5-.1 1.5-.1 2.7zm1.3-8.5v3.5h-10.2v-3.5c0-.4.3-.8.8-.8h8.7c.4 0 .7.3.7.8z"/></symbol><symbol id="branch-construction" viewBox="114.2 90.5 71.3 61.6"><path d="M185.4 123.4V114c0-.6-.5-1.2-1.2-1.2h-8.9L167 92.3c-.4-1.1-1.4-1.8-2.6-1.8-1.2 0-2.1.7-2.6 1.8l-4.5 11.2h-41.8c-.6 0-1.2.5-1.2 1.2v9.8c0 .6.5 1.2 1.2 1.2h12.7v6.4h-12.7c-.6 0-1.2.5-1.2 1.2v10.2c0 .6.5 1.2 1.2 1.2h12.7v7.7c0 .6.5 1.2 1.2 1.2h30.5v4.1c0 2.5 2.1 4.6 4.6 4.6 2.5 0 4.6-2.1 4.6-4.6V144h15.3c.6 0 1.2-.5 1.2-1.2v-10.2c0-.6-.5-1.2-1.2-1.2h-12.7v-3.5h5.5c1 0 1.8-.4 2.3-1.2.4-.6.5-1.3.4-2.1h4.4c.7 0 1.1-.6 1.1-1.2zm-2.2-8.3v7.1h-4.1l-2.9-7.1h7zm-33.8 7.8h-19.1v-8.3h22.4l-3.3 8.3zm-7 9.3h-12.7c-.2-.1-.4-.2-.5-.2h-12.7v-7.9h12.7c.2 0 .4-.1.6-.2h12.7l-.1 8.3zm-12.5-18.8c-.2-.1-.4-.2-.6-.2h-12.7v-7.5h25.9v7.8l-12.6-.1zm.4 27.8v-7.8h25.9v7.8h-25.9zm29.4-3.1v2.9h-2.4v-7.8h5.9v.3c-1.9.7-3.5 2.5-3.5 4.6zm5.7-4.7h4.5c.2.1.4.2.6.2h12.7v7.9h-14.3v-3.4c0-2.1-1.5-3.9-3.5-4.5v-.2zm4.1-1.2h-3.9v-4.5h3.9v4.5zm-6.3 0h-19.6V124h5.4c-.4.9-.3 1.9.3 2.6.5.8 1.4 1.2 2.3 1.2h11.7v4.4zm-10.1-18.8h-9.5v-7.8h12.8l-3.3 7.8zm13.6 34c0 1.3-1.1 2.3-2.3 2.3-1.3 0-2.3-1.1-2.3-2.3v-9.3c0-1.3 1.1-2.3 2.3-2.3 1.3 0 2.3 1.1 2.3 2.3v9.3zm11-22c-.1.1-.2.3-.4.3h-11.8v-3c0-.6-.5-1.2-1.2-1.2-.6 0-1.2.5-1.2 1.2v2.9h-11.6c-.3 0-.4-.2-.4-.3 0-.1-.2-.3-.1-.5L163.8 93c.1-.4.4-.4.5-.4s.4 0 .5.4l8.7 21.3 3.8 9.4.4 1c.1.4.1.6 0 .7z"/></symbol><symbol id="branch-cosmetics" viewBox="118.2 87.1 68.7 72.6"><g><path d="M183.6 116c-.6-.3-1.3-.4-2-.4-2.7 0-5.4 2-6.7 5.1-.7 1.7-.7 4.4-.7 5.1l-1.9 4.3-7.2 22.6.1.4c.3.7 1.1 1.8 2.6 1.8.4 0 .7-.1 1.1-.2l.4-.1 11.6-20.6 1.9-4.3c.5-.5 2.5-2.3 3.3-3.9 1.7-4.1.6-8.4-2.5-9.8zm-4.5 16.9l-11.2 19.8c-.2 0-.4-.1-.5-.3l6.6-20.6 3.2 1.4.8-1.9-3.3-1.4 1.2-2.7 4.8 2.1-1.6 3.6zm5.1-8.2c-.4.9-1.6 2.1-2.3 2.9l-5.6-2.4c0-1 .1-2.7.5-3.6 1-2.2 2.9-3.8 4.8-3.8.4 0 .8.1 1.2.2 2 .8 2.6 3.9 1.4 6.7zM161.1 97.1c0-4-9.5-5.8-18.4-5.8-8.8 0-18.4 1.8-18.4 5.8s9.5 5.8 18.4 5.8c8.8 0 18.4-1.8 18.4-5.8zm-34.7 0c0-1.3 5.7-3.7 16.3-3.7 10.5 0 16.3 2.5 16.3 3.7s-5.7 3.7-16.3 3.7c-10.5 0-16.3-2.5-16.3-3.7z"/><path d="M153.7 113.2c-1-1-1.5-2.3-1.5-3.7 0-1.3.5-2.6 1.4-3.5 8.2-1.6 13.7-5 13.7-9 0-5.6-10.8-10-24.5-10-13.8 0-24.5 4.4-24.5 10 0 4 5.4 7.3 13.4 8.9 2 2 2 5.2 0 7.2-.1.1-.1.2-.2.3-7.8 4.1-13.1 12.3-13.1 21.7 0 13.5 11 24.5 24.5 24.5s24.5-11 24.5-24.5c-.1-9.5-5.7-17.9-13.7-21.9zm-33.4-16.1c0-3.7 9.2-7.9 22.4-7.9s22.4 4.1 22.4 7.9c0 3.7-9.2 7.9-22.4 7.9-13.2-.1-22.4-4.2-22.4-7.9zm14.2 9.4c2.6.4 5.3.6 8.2.6 2.8 0 5.5-.2 8-.5-.4.9-.7 2-.7 3.1 0 .8.1 1.6.4 2.3-2.4-.8-5-1.2-7.7-1.2-2.8 0-5.5.5-8.1 1.4.8-2 .7-4-.1-5.7zm8.3 51.1c-12.4 0-22.4-10.1-22.4-22.4s10.1-22.4 22.4-22.4 22.4 10.1 22.4 22.4c0 12.4-10.1 22.4-22.4 22.4z"/><path d="M142.8 115.2c-11 0-20 9-20 20s9 20 20 20 20-9 20-20c-.1-11-9-20-20-20zm17.8 19h-4.4l-12.3-12.3v-4.4c8.9.4 16.2 7.6 16.7 16.7zm-17.8 12.5l-11.5-11.5 11.5-11.5 11.5 11.5-11.5 11.5zm-1.1-29.3v4.4l-12.3 12.3H125c.5-9 7.7-16.2 16.7-16.7zM125 136.3h4.4l12.3 12.3v4.4c-9-.5-16.2-7.7-16.7-16.7zm18.8 16.7v-4.4l12.3-12.3h4.4c-.4 9-7.7 16.2-16.7 16.7z"/></g></symbol><symbol id="branch-defence" viewBox="38.2 94 63.6 52"><path d="M70 146c-.9 0-8.8-.1-14.8-.7-6.4-.6-9.6-1-12.2-1.5-1.7-.3-3-.9-3.8-1.8-.8-.9-1-1.9-1-2.5 0-.7.2-1.2.2-1.3 0-.1.1-.6 0-1.1 0-.6 0-1.1-.1-1.2-.1-.4-.2-1.1-.2-1.7 0-.2 0-.5.1-.8.2-.5.6-.7.8-.9v-1.1c0-.3 0-.6.1-.9.1-.4.6-.9 1.2-.9h1.5s0-.1.1-.1c.3-.4.6-.7.9-.9.8-9.2 3.6-16.7 7.9-21.1.1-.5.4-1 .8-1.4.4-.3.8-.5 1.4-.6l.4-.3.2-.1c.8-.6 2.2-1.5 2.9-2 0-.2.1-.7.3-1.2.3-.9.8-1.9 1.9-2.3 1.6-.5 6.7-1.4 6.7-1.4.4-.1 1-.2 1.2-.3.1-.1.2-.1.2-.1 0-.4.1-.9.2-1.4l.1-.9c0-.2 0-.4.1-.7.1-.3.2-.5.4-.6.2-.2.5-.3.8-.3H71c.3 0 .6.1.8.3.2.2.3.4.4.6.1.2.1.4.1.6v.2c0 .2.1.4.1.7.1.5.1 1.1.2 1.5 0 0 .1 0 .2.1.3.1.8.2 1.2.3.5.1 5.2.9 6.7 1.4 1.1.4 1.6 1.4 1.9 2.3.2.5.3 1 .3 1.3.7.5 2.1 1.4 2.9 1.9l.2.1c.2.1.3.2.4.3.5.1 1 .3 1.3.6.4.3.7.8.8 1.4 4.3 4.3 7.1 11.9 8 21.1.3.1.5.4.8.8 0 .1.1.1.1.2h1.5c.6 0 1.1.5 1.3.9.1.3.1.6.1.9v1.2c.3.1.6.4.9.8.1.3.1.6.1.9 0 .6-.1 1.3-.2 1.6 0 .2-.1.7-.1 1.3v1.1c.1.2.2.7.2 1.3 0 .5-.1 1.6-1 2.5-.8.9-2.1 1.5-3.8 1.8-2.6.5-5.9.8-12.2 1.5-5.4.5-13.3.6-14.2.6zm-30-11.8v.1c0 .3 0 .8.2 1.4 0 .3.1.9.1 1.5s0 1.2-.1 1.6c0 .1-.1.4-.1.8 0 .5.2.9.5 1.3.5.6 1.5 1 2.9 1.2 2.6.5 9.3 1.3 15.2 1.7 6.1.4 11.4.5 11.5.5 0 0 5.4-.1 11.5-.5 5.9-.4 12.6-1.2 15.2-1.7 1.3-.2 2.3-.7 2.8-1.2.3-.4.5-.8.5-1.3 0-.4-.1-.7-.1-.8-.1-.4-.1-1-.1-1.5 0-.7 0-1.3.1-1.6.1-.6.2-1.1.2-1.4v-.1c-.1 0-.3-.2-.3-.2l-.1-.1-.3-.1c-.2-.1-.3-.2-.3-.4v-1.7l.1-.1H99v-.2c-.5 0-1.3 0-1.6.1H97c-.1 0-.2 0-.3-.1v1.8c0 1.5-.1 2.8-1.2 3.7-1 .8-2.5 1.1-5.7 1.2-3.7 0-8.1 0-13.2.1-3.4.1-6 .1-6.5.1H70c-.5 0-3.1-.1-6.5-.1-5-.1-9.5-.1-13.2-.1-3.2-.1-4.7-.5-5.7-1.2-1.1-.9-1.2-2.2-1.2-3.7v-1.8c-.1.1-.2.1-.3.1h-.4c-.3 0-1.1 0-1.6-.1v2c0 .2-.1.3-.3.4l-.3.1-.1-.1v.1c-.1.1-.3.2-.4.3zm4.7-4.2v1.1c0 1.7.1 2.9.8 3.8.7.9 2.2 1.4 4.7 1.5 8.7 0 19.7.3 19.8.3h.2c3.5-.1 12.4-.3 19.6-.3 2.5-.1 4-.6 4.7-1.5.7-.8.8-2.1.8-3.7v-1.8c-.9-11.2-4.3-17-7.1-20h-.1c-.5 0-1.2-.2-1.6-.5-.7-.5-1.1-1.2-1.1-2l-.1-.2c-.3-.2-.8-.5-1.3-.9l.4 19.2c0 .1 0 .2-.1.3-.1.1-.2.1-.3.1h-.6c-.2 0-.4-.2-.4-.4 0-1.1-.2-5-.4-9.2-.2-4.2-.5-9.6-.8-11.7l-.2-.9c-.1-.2-.1-.4-.2-.6-.2-.7-.6-1.2-.8-1.2-1.3-.4-5.5-1.2-6.6-1.4-.3 0-.5-.1-.8-.2l-.2 8 2.9 1.1c.1 0 .2.1.2.2s.1.2 0 .3l-.1.3c-.1.2-.2.3-.4.3h-.1l-3.4-1.3c-.2-.1-.3-.2-.3-.4v-1l-.6-9v-.2c-.1-.4-.1-.8-.2-1.3v-1.1h-1.9l-.2 1.3c-.1.4-.1.9-.2 1.2v.2l-.6 9-.1 1c0 .2-.1.3-.3.4l-3.4 1.3h-.1c-.2 0-.3-.1-.4-.3l-.1-.3v-.3c.1-.1.1-.2.2-.2l2.9-1.1-.2-8c-.3.1-.5.1-.8.2-1.1.2-5.2 1-6.5 1.4-.2 0-.6.5-.8 1.2-.1.2-.1.4-.2.6l-.1.7-.1.1h.1c-.3 2.1-.7 7.6-.9 11.8-.2 4.2-.3 8.1-.4 9.2 0 .3-.2.4-.4.4h-.6c-.1 0-.2-.1-.3-.1-.1-.1-.1-.2-.1-.3l.4-19.2c-.5.4-1 .7-1.3.9l-.1.1v.1c0 .8-.4 1.5-1.1 2-.5.4-1.2.6-1.8.6-2.6 2.9-6.1 8.8-7 20v.3l.1.1zm8.5-23.4c-.3 0-.6.1-.9.4-.4.4-.6.9-.4 1.2.1.1.3.2.4.2.3 0 .6-.1.9-.4.3-.2.5-.6.5-.8 0-.1 0-.3-.1-.4-.1-.2-.3-.2-.4-.2zm33.7-.1c-.1 0-.2 0-.3.1-.3.2-.1.8.3 1.2.3.3.6.5.9.5.1 0 .2 0 .3-.1.1-.1.1-.2.1-.3 0-.3-.1-.6-.4-.9-.3-.3-.7-.5-.9-.5z"/></symbol><symbol id="branch-food" viewBox="118.7 88.7 62.6 62.6"><path d="M159.2 151.3c-2.3 0-4.3-1.3-5.4-3.3l-.6-1.2-.8 1.1c-1.6 2.1-4.1 3.4-6.8 3.4h-14.2c-6.8 0-8.3-5.7-8.8-7.5l-.1-.4-.1-.4-.4-.1c-1.9-.5-3.2-2.3-3.2-4.2 0-2 1.3-3.7 3.2-4.2l.4-.1.1-.4c2.1-7 8.7-12 16-12 5.1 0 10 2.4 13.2 6.5l1.4 1.8v-25.4c0-.5.4-1 1-1h12.1v-6.2l-10.5-7c-.4-.3-.6-.9-.3-1.4.2-.3.5-.4.8-.4.2 0 .4.1.6.2l10.9 7.3c.3.2.4.5.4.8v6.8h12.1c.3 0 .5.1.7.3.2.2.3.4.3.7v40.5c0 3.3-2.7 6-6 6h-16zm-4.1-17l.5.2c1.7.7 2.8 2.3 2.8 4.1 0 1.8-1.1 3.4-2.7 4.1l-.5.2v2.4c0 2.2 1.8 4.1 4.1 4.1h16.1c2.2 0 4.1-1.8 4.1-4.1v-25h-24.2v14zm-30.2 9.9c1.6 4.2 4.5 5.1 6.6 5.1h14.2c4.4 0 6.4-4.7 6.6-5.2l.5-1.1h-28.3l.4 1.2zm-1.8-8c-1.3 0-2.4 1.1-2.4 2.4s1.1 2.4 2.4 2.4h31c1.3-.1 2.3-1.2 2.3-2.4 0-1.3-1.1-2.4-2.4-2.4h-30.9zm15.4-12.4c-6 0-11.5 3.7-13.7 9.3l-.4 1.1h28.3l-.4-1.1c-2.3-5.5-7.8-9.3-13.8-9.3zm29.7-5.5h11.1v-12.6h-11.1v12.6zm-13.1 0h11.1v-12.6h-11.1v12.6z"/></symbol><symbol id="branch-furniture" viewBox="13 108.7 74.4 45.1"><path d="M22.9 153.9c-.5 0-1-.4-1-1v-3.4l-.2-.1c-2.3-.7-3.8-2.8-3.8-5.2v-10h-.2c-2.8-.6-4.7-3.1-4.7-5.9.2-3.2 2.8-5.7 6-5.7h3.7V118c0-5.1 4.1-9.2 9.2-9.2h10c3.3 0 6.4 1.8 8 4.6l.3.5.3-.5c1.6-2.9 4.7-4.6 8-4.6h10c5.1 0 9.2 4.1 9.2 9.2v4.6h3.7c3.3 0 5.9 2.5 6.1 5.7.1 2.8-1.9 5.3-4.6 5.9l-.2.1v10c0 2.4-1.5 4.5-3.8 5.2l-.2.1v3.4c0 .5-.4 1-1 1H72c-.5 0-1-.4-1-1v-3.2H29.6v3.2c0 .5-.4 1-1 1h-5.7zm49.8-2h3.7v-2.3h-3.7v2.3zm-48.8 0h3.7v-2.2h-3.7v2.2zm52.4-27.4c-1.9 0-3.5 1.6-3.5 3.5v19.7H77c1.9 0 3.5-1.6 3.5-3.5v-10.8c0-.5.4-1 1-1 1 0 2.1-.4 2.8-1.2l.1-.1c.7-.7 1-1.7 1-2.7-.1-2.1-1.9-3.8-4-3.8l-5.1-.1zm-46.7 23.2h41.2v-4.5H29.6v4.5zm-10.5-23.2c-2.2 0-4 1.7-4.1 3.8v.1c0 2.1 1.7 3.9 3.9 3.9.5 0 1 .4 1 1v10.9c0 1.9 1.6 3.5 3.5 3.5h4.3V128c0-1.9-1.6-3.5-3.5-3.5h-5.1zm10.5 16.7h41.2v-6.9H29.6v6.9zm28.8-30.5c-4 0-7.3 3.3-7.3 7.3v14.4h19.6v-4.3c0-2.7 2-5 4.6-5.4h.3V118c0-4-3.3-7.3-7.3-7.3h-9.9zm-26.4 0c-4 0-7.3 3.3-7.3 7.3v4.6h.3c2.7.4 4.6 2.7 4.6 5.4v4.3h19.6V118c0-4-3.3-7.3-7.3-7.3H32z"/></symbol><symbol id="branch-home-technics" viewBox="31.8 90.8 56.4 58.3"><g><path d="M77.7 149.2v-2.8H42.3v2.8h-7.7v-2.8h-2.8V95.6c0-2.7 2.1-4.8 4.8-4.8h46.9c2.7 0 4.8 2.1 4.8 4.8v50.7h-2.8v2.8h-7.8zm5.6-2.1v-.7h-3.5v.7h3.5zm-43.1 0v-.7h-3.5v.7h3.5zm45.9-2.8V106H33.9v38.2h52.2zm0-40.3v-8.3c0-1.5-1.2-2.7-2.7-2.7H36.6c-1.5 0-2.7 1.2-2.7 2.7v8.3h52.2z"/><path d="M43.1 102.3c-2.1 0-3.8-1.7-3.8-3.8s1.7-3.8 3.8-3.8 3.8 1.7 3.8 3.8-1.6 3.8-3.8 3.8zm0-5.6c-1 0-1.8.8-1.8 1.8s.8 1.8 1.8 1.8 1.8-.8 1.8-1.8-.8-1.8-1.8-1.8zM56.3 102.3c-2.1 0-3.8-1.7-3.8-3.8s1.7-3.8 3.8-3.8 3.8 1.7 3.8 3.8-1.7 3.8-3.8 3.8zm0-5.6c-1 0-1.8.8-1.8 1.8s.8 1.8 1.8 1.8 1.8-.8 1.8-1.8-.9-1.8-1.8-1.8zM65.5 97.4h15.2v2.1H65.5zM60 140.7c-7.5 0-13.7-6.1-13.7-13.7s6.1-13.7 13.7-13.7 13.7 6.1 13.7 13.7-6.2 13.7-13.7 13.7zm0-25.3c-6.4 0-11.6 5.2-11.6 11.6s5.2 11.6 11.6 11.6c6.4 0 11.6-5.2 11.6-11.6s-5.2-11.6-11.6-11.6z"/><path d="M60 135.6c-4.7 0-8.5-3.8-8.5-8.5s3.8-8.5 8.5-8.5 8.5 3.8 8.5 8.5c0 4.6-3.8 8.5-8.5 8.5zm-6.4-7.5c.5 3.1 3.2 5.4 6.4 5.4 3.4 0 6.1-2.6 6.4-5.9-1.1.9-2.5 1.4-4 1.4-1.2 0-2.5-.4-3.5-1-.7-.4-1.5-.7-2.4-.7-.5 0-1.1.1-1.6.3l-1.3.5zm3-2.7c1.2 0 2.4.4 3.4 1 .7.4 1.5.7 2.4.7 1 0 2-.4 2.8-1l1-.9c-.9-2.7-3.3-4.6-6.2-4.6-3.2 0-5.8 2.3-6.3 5.5l.6-.2c.7-.4 1.5-.5 2.3-.5zM59 108.7h2.1v2.1H59zM62.7 108.7h2.1v2.1h-2.1zM55.2 108.7h2.1v2.1h-2.1z"/></g></symbol><symbol id="branch-industrial-equipment" viewBox="117.4 87.3 65.3 65.4"><path d="M172.1 106.3c-.2 0-.5-.1-.6-.2l-8.1-6.3c-.2-.2-.4-.5-.4-.7s.1-.6.3-.8l1.7-1.8c.4-.4.7-.9.9-1.4.1-.3.4-.5.7-.6s.7 0 .9.2l8.1 6.2c.3.2.4.6.4.9-.1.4-.3.7-.6.8-.6.3-1 .6-1.4 1.1-.4.5-.6 1-.7 1.6-.1.4-.3.7-.7.8-.3.2-.4.2-.5.2zm-6.6-7.4l6.1 4.7c.2-.4.4-.7.6-1 .3-.3.5-.6.8-.9l-6-4.6c-.2.3-.4.6-.7.8l-.8 1zM167.8 152.7h-40.5c-5.5 0-9.9-4.5-9.9-10s4.5-10 9.9-10h17.4c.2 0 .4.1.6.2l19.4 13.3c.7.5 1.5.7 2.4.7 1.4 0 2.7-.7 3.5-1.9 1.3-1.9.8-4.5-1.1-5.9l-6.8-4.6c-.4-.3-.5-.7-.4-1.1.2-.4.5-.7 1-.7h4.5c5.5 0 9.9 4.5 9.9 10 .1 5.5-4.4 10-9.9 10zm-40.5-17.9c-4.4 0-7.9 3.6-7.9 7.9s3.6 7.9 7.9 7.9h40.5c4.4 0 7.9-3.6 7.9-7.9s-3.6-7.9-7.9-7.9h-1.2l4.1 2.7c2.8 2 3.6 5.9 1.6 8.7a6.31 6.31 0 0 1-5.2 2.7c-1.2 0-2.5-.4-3.5-1.1l-19.2-13.1h-17.1z"/><path d="M167.1 149c-1.2 0-2.5-.4-3.5-1.1l-31.4-21.5c-1.3-.9-2.2-2.2-2.6-3.8-.1-.6.2-1.1.8-1.2.6-.1 1.1.2 1.2.8.2.8.6 1.5 1.2 2.1.8.8 1.8 1.2 2.9 1.2 1.1 0 2.2-.5 3-1.3l4.2-4.4c.4-.4.9-.4 1.3-.2l26.4 18c2.8 2 3.6 5.9 1.6 8.7-1.1 1.6-3.1 2.7-5.1 2.7zm-30-21.7l27.6 18.9c.7.5 1.5.7 2.4.7 1.4 0 2.7-.7 3.5-1.9 1.3-1.9.8-4.5-1.1-5.9l-25.6-17.5-3.6 3.8c-.9 1-2 1.6-3.2 1.9z"/><path d="M135.7 127.5c-1.6 0-3.1-.6-4.3-1.8-.9-.8-1.5-1.9-1.8-3.1 0-.1-.1-.1-.1-.2s0-.1-.1-.2v-.1c-.1-.2-.1-.4-.1-.6-.2-1.8.5-3.5 1.7-4.8l26.2-27.6c1.2-1.2 2.8-2 4.5-2 1.6 0 3.1.6 4.3 1.8 1.9 1.8 2.4 4.4 1.5 6.9-.3.8-.7 1.4-1.3 2.1L140 125.5c-1 1.2-2.6 2-4.3 2zm26.2-38.2c-1.1 0-2.2.5-3 1.3l-26.2 27.7c-.8.9-1.2 2-1.1 3.2 0 .2 0 .3.1.4v.2s0 .1.1.1c.2.8.6 1.5 1.2 2.1.8.8 1.8 1.2 2.9 1.2 1.1 0 2.2-.5 3-1.3L165 96.6c.4-.4.7-.9.9-1.4.6-1.6.2-3.4-1-4.6-.9-.8-1.9-1.3-3-1.3zM176.9 126.6c-.5 0-.9-.4-1-.9l-2.2-15c-.1-.4.1-.8.4-1 .3-.2.7-.3 1.1-.1 1.1.6 2.4.6 3.5 0 .4-.2.8-.2 1.1.1s.5.6.4 1l-2.3 15c-.1.5-.5.9-1 .9zm-1-14.6l1 6.5 1-6.5c-.7.1-1.4.1-2 0z"/><path d="M176.9 112.1c-.9 0-1.9-.2-2.7-.7l-.9-.6c-1.8-1.3-2.6-3.6-2.2-5.7.2-.9.6-1.8 1.1-2.6.6-.8 1.3-1.3 2.2-1.8.8-.4 1.6-.6 2.5-.6 1.3 0 2.6.4 3.6 1.2 2.6 2 3 5.7 1 8.3-.5.7-1.2 1.2-2 1.6-.8.7-1.7.9-2.6.9zm0-9.8c-.6 0-1.1.1-1.6.4-.6.3-1 .6-1.4 1.1-.4.5-.6 1-.7 1.6-.3 1.4.3 2.8 1.4 3.8.2.2.4.3.6.4.5.3 1.1.4 1.8.4.6 0 1.2-.2 1.8-.4s.9-.6 1.2-1c1.3-1.7 1-4.1-.7-5.4-.8-.6-1.6-.9-2.4-.9z"/><path d="M176.9 108.5c-.4 0-.7-.1-1-.3-.2-.1-.3-.2-.4-.2-.7-.5-1-1.4-.8-2.3.1-.4.2-.7.5-1 .2-.3.5-.5.8-.7.3-.2.6-.2 1-.2s.9.1 1.4.5c1 .8 1.2 2.2.4 3.2-.2.3-.5.5-.8.6-.4.3-.8.4-1.1.4zm0-3.6c-.2 0-.4.1-.5.1-.2.1-.4.2-.5.4l-.3.6c-.1.5.1 1 .5 1.2.1.1.1.1.2.1.4.2.8.2 1.1 0 .2-.1.3-.2.4-.4.4-.6.3-1.3-.2-1.8-.3-.1-.5-.2-.7-.2zM161.3 97.2c-1.8 0-3.1-1.4-3.1-3.1 0-1.8 1.4-3.1 3.1-3.1 1.8 0 3.1 1.4 3.1 3.1 0 1.7-1.3 3.1-3.1 3.1zm0-5.3c-1.2 0-2.1.9-2.1 2.1 0 1.2.9 2.1 2.1 2.1s2.1-.9 2.1-2.1c0-1.2-.9-2.1-2.1-2.1zM135.6 124.2c-1.8 0-3.1-1.4-3.1-3.1 0-1.8 1.4-3.1 3.1-3.1s3.1 1.4 3.1 3.1c.1 1.7-1.3 3.1-3.1 3.1zm0-5.2c-1.2 0-2.1.9-2.1 2.1 0 1.2.9 2.1 2.1 2.1s2.1-.9 2.1-2.1c.1-1.2-.9-2.1-2.1-2.1zM167.1 145.9c-1.8 0-3.1-1.4-3.1-3.1 0-1.8 1.4-3.1 3.1-3.1s3.1 1.4 3.1 3.1c0 1.7-1.4 3.1-3.1 3.1zm0-5.3c-1.2 0-2.1.9-2.1 2.1s.9 2.1 2.1 2.1 2.1-.9 2.1-2.1c0-1.2-.9-2.1-2.1-2.1z"/></symbol><symbol id="branch-kids" viewBox="88.2 88.2 63.6 63.6"><path d="M120.1 151.8c-11.9 0-23-4.5-31.5-12.6-.2-.2-.4-.5-.4-.9 0-.3.1-.6.3-.9.2-.2.6-.4.9-.4.3 0 .6.1.9.3 1.9 1.8 4 3.5 6.3 5l1.5 1 4.7-29.1-4.5-.9-.4.4c-1.1.9-2.4 1.4-3.7 1.4-3.2 0-5.8-2.6-5.8-5.8 0-1.5.6-3 1.7-4.1l7-7 .2-4.4c0-.3.1-.5.3-.7 2.6-3.1 6.4-4.9 10.4-4.9 7.4 0 13.5 6 13.5 13.5v10.4h17.1c3.9 0 7.6 1.7 10.2 4.7.2.3.3.6.3.9 0 .3-.2.6-.4.9-.2.2-.5.3-.8.3-.4 0-.7-.2-.9-.4-2-2.3-4.8-3.6-7.8-3.8l-1.5-.1 4.6 28.9 1.5-1c2.2-1.4 4.2-3 6.1-4.8.2-.2.5-.3.9-.3.3 0 .7.1.9.4.5.5.4 1.3 0 1.8-8.7 7.8-19.9 12.2-31.6 12.2zm0-14.8c-5.7 0-10.4 4.3-10.9 9.9l-.1 1 1 .2c3.3.8 6.6 1.2 10 1.2 3.4 0 6.7-.4 10-1.2l1-.2-.1-1c-.5-5.7-5.2-9.9-10.9-9.9zm-22.3-26.2h.3l6.4 1.3c.7.1 1.1.8 1 1.4l-5 31.1.8.4c1.3.6 2.6 1.2 4 1.7l1.4.5.2-1.4c1.1-6.6 6.6-11.3 13.3-11.3 6.6 0 12.2 4.8 13.3 11.3l.2 1.4 1.4-.5c1.3-.5 2.7-1 4-1.7l.8-.4-4.8-30.1h-14.8c-.7 0-1.2-.6-1.2-1.2v-11.7c0-6.1-4.9-11-11-11-3 0-5.8 1.2-7.9 3.3l-.3.3-.2 4.5c0 .3-.1.6-.4.8l-7.3 7.4c-.6.6-.9 1.5-.9 2.3 0 1.8 1.5 3.3 3.3 3.3 1.1 0 2-.5 2.7-1.4-.1-.1.3-.3.7-.3z"/></symbol><symbol id="branch-light-industry" viewBox="140.1 97.6 59.7 44.8"><path d="M141.2 142.4c-.6 0-1.1-.5-1.1-1.1V109c0-.4.2-.8.6-1l19.2-10c.2-.1.3-.1.5-.1s.4.1.6.2c.3.2.5.6.5.9v8.2l17.6-9.1c.2-.1.3-.1.5-.1s.4.1.6.2c.3.2.5.6.5.9v14.3h8.4V98.7c0-.6.5-1.1 1.1-1.1h8.6c.6 0 1.1.5 1.1 1.1v42.6c0 .6-.5 1.1-1.1 1.1h-57.6zm51.1-13.8c.6 0 1.1.5 1.1 1.1v10.5h4.3V99.8h-6.4v14.6c0 .6-.5 1.1-1.1 1.1h-9.4v24.7h4.2v-10.5c0-.6.5-1.1 1.1-1.1h6.2zm-5.3 11.6h4.2v-9.4H187v9.4zm-25.5-25.1v25.1h17v-34l-17 8.9zm-19.2 0v25.1h17v-34l-17 8.9zm19.2-5.5v2.9l17-8.8v-2.9l-17 8.8zm-19.2 0v2.9l17-8.8v-2.9l-17 8.8z"/><path d="M146.7 124.9h2.2v4.4h-2.2zM152.5 124.9h2.2v4.4h-2.2zM166 124.9h2.2v4.4H166zM171.8 124.9h2.2v4.4h-2.2z"/></symbol><symbol id="branch-light" viewBox="142.6 88.2 54.9 63.4"><path d="M149.2 151.7c-.4 0-.8-.2-1-.6-.2-.3-.2-.8-.1-1.1 2.2-4.5 6.9-7.8 12.6-8.9l1.1-.2-12.7-12.7-.3.1c-.4.1-.9.2-1.4.2-2.7 0-4.9-2.2-4.9-4.9s2.2-4.9 4.9-4.9c.5 0 1 .1 1.4.2l.3.1 15.7-15.7-2.3-2.3c-1.3-1.3-2.1-2.9-2.3-4.5-.3-2.1.5-4.1 2.3-5.9 1.5-1.5 3.2-2.3 5.1-2.3 1.9 0 3.9.9 5.3 2.3l2.7 2.7.3-.1c1.1-.2 2.3-.3 3.4-.3 5.8 0 12.2 2.7 17.4 7.3.3.3.5.6.5.9 0 .3-.1.6-.4.9l-6.3 6.3.3.4c1.9 3 1.5 6.9-1 9.4-1.4 1.4-3.3 2.2-5.4 2.2-1.5 0-2.9-.4-4.1-1.1l-.4-.3-6.3 6.3c-.3.3-.6.5-.8.5-.3 0-.6-.2-.9-.5-4.5-5.1-7.1-11.2-7.3-16.9v-1.4l-13.5 13.5.3.4c.6.8.9 1.8.9 2.8 0 1-.3 2-.9 2.8l-.3.4 14 13.9h.2c2.4.1 4.6.5 6.7 1.3l.8.3V141c0-.7.5-1.2 1.2-1.2s1.2.5 1.2 1.2v2.6l.3.2c2.5 1.6 4.4 3.7 5.6 6.2.2.4.2.8-.1 1.1-.2.3-.6.6-1 .6h-30.8zm15.5-8.6c-4.9 0-9.6 1.9-12.5 5.2l-.9 1h26.8l-.9-1c-2.9-3.2-7.6-5.2-12.5-5.2zM147.5 121c-1.4 0-2.5 1.1-2.5 2.5s1.1 2.5 2.5 2.5 2.5-1.1 2.5-2.5c0-1.3-1.1-2.5-2.5-2.5zm31.7-25.6c-3.5 0-6.5 1.1-8.7 3.3-5.1 5.2-4.3 15.2 2 23.4l.4.5 21.5-21.5-.6-.4c-4.8-3.4-10-5.3-14.6-5.3zm2.6 21.8l.8.3c.6.3 1.3.4 2 .4 1.4 0 2.7-.5 3.7-1.5 1.5-1.5 1.9-3.7 1.1-5.6l-.3-.8-7.3 7.2zm-14.1-26.4c-1.3 0-2.4.5-3.4 1.5-1.6 1.6-1.6 3.2-1.4 4.3.2 1.2.9 2.3 1.4 2.8l1.8 1.8.4-.7c.7-1.3 1.5-2.5 2.5-3.5s2.2-1.9 3.5-2.5l.7-.4-1.8-1.8c-.5-.6-2-1.5-3.7-1.5z"/></symbol><symbol id="branch-oil" viewBox="132.7 87.9 35.1 64.2"><g><path d="M155 126.9l-1 .5 1-.5-4.2-7.6c-.2-.3-.5-.5-1-.5-.4 0-.7.2-1 .5l-4.1 7.6c-.4.8-.7 1.7-.7 2.7 0 3.1 2.6 5.8 5.8 5.8 3.1 0 5.8-2.6 5.8-5.8.1-.9-.2-1.8-.6-2.7zm-5.1 6.5c-2 0-3.7-1.7-3.7-3.7 0-.6.2-1.2.4-1.7l3.2-5.9 3.2 5.9c.3.5.4 1.1.4 1.7.2 2-1.5 3.7-3.5 3.7z"/><path d="M164.8 97.9l-.4-9.1c0-.5-.5-1-1-1H151c-.5 0-1 .4-1 1l-.4 8.9h-.7c-.3 0-.7.2-.9.4L133.4 119v.1c-.5.9-.7 1.6-.7 2.2V148c0 2.3 1.9 4.2 4.2 4.2h26.7c2.3 0 4.2-1.9 4.2-4.2v-46c-.1-2-1.3-3.6-3-4.1zm-6.6-.2V90h1.1v7.7h-1.1zm-2.1 0H155V90h1.1v7.7zm6.6 0h-1.3V90h.9l.4 7.7zm-10.8-7.8h.9v7.7h-1.2l.3-7.7zm11.6 60.2h-26.7c-1.1 0-2.1-1-2.1-2.1v-26.5-.2c0-.1 0-.4.4-1.1l14.1-20.3h14.2c1.1 0 2.1 1 2.1 2.1v9.4h-3.1c-.6 0-1 .4-1 1s.4 1 1 1h3.1v5.8h-5c-.6 0-1 .4-1 1s.4 1 1 1h5v5.8h-3.1c-.6 0-1 .4-1 1s.4 1 1 1h3.1v5.8h-5c-.6 0-1 .4-1 1s.4 1 1 1h5v5.8h-3.1c-.6 0-1 .4-1 1s.4 1 1 1h3.1v3.1c.1 1.5-.9 2.4-2 2.4z"/></g></symbol><symbol id="branch-shoes" viewBox="112.3 99.7 75.3 50.4"><path d="M187.6 144.4l-.8-5.7c-.1-.5-.5-.9-1-1-.1-.2-.2-.5-.4-.7-1.4-2-5.1-3.1-11.1-3.5-2.7-.4-10.1-1.7-12.1-3.7l-.1-.1.3-.5c.2-.4.1-.8-.3-1l-8.9-5c-.2-.1-.4-.1-.6-.1-.2.1-.4.2-.5.4l-.8-.8c.3-.2.4-.6.3-.9l-4-9.1c-.2-.4-.6-.6-1-.4l-1.3.5-2.8-7.3c-.2-.5-.6-.8-1.1-.8H140c-1.4-3.1-2.8-4.8-4.3-5.1-1.1-.2-1.7.4-1.7.5l-4.6 4.5c-.1.1-.1.1-.1.2l-1.9 3.8c-.4.3-.7.6-.7.6s0 .1-.1.1l-5.4 6.8-3.2.3c-.8.1-1.5.5-2 1.2-.3.5-.4 1.1-.3 1.6l-.3.5c-.1.1-.2.3-.2.5l-1.1 7.2c-.9 2-1.4 9.2-1.5 13.6v7.9c0 .6.5 1.2 1.2 1.2H159.1c6.1 0 23.2-.4 28.4-4.6 0-.2.2-.6.1-1.1zm-13.6-8.5c.1 0 .1 0 0 0 9 .6 9.6 2.7 9.6 2.8v.4c-4.1 1.8-23.4 2.4-32.3 2.5l1.3-1.8 6.3-2c.7-.2 1.4-.6 1.8-1.2.7-.8.7-1.5.6-1.9-.1-.6-.5-1.1-1.2-1.5l.7-1.4c3.5 2.8 12.2 4 13.2 4.1zm-13.4-6.7l-2 3.9c-.1.2-.3.3-.5.2l-6.8-3.4c-.2-.1-.3-.3-.2-.5l2-4.4 7.5 4.2zm-11-.5c-.4 1 0 2.1.9 2.6l6.8 3.4c.3.1.6.2.9.2.4 0 .7-.1 1-.3.5.3.6.5.6.6 0 .2-.1.5-.3.6-.3.3-.6.5-1.1.7l-6.6 2c-.2 0-.3.1-.4.3l-2 2.7c-.1.1-.1.2-.1.3l-34.8-1.1c.2-4 .5-8.4.9-10.6.3.1.8.1 1.3.1.8 0 1.7-.1 2.7-.7 1.7-.9 2.9-2.7 3.5-5.3 1.5-6.8 8.7-11.6 8.8-11.6 0 0 2.9-2 5.5-1.8.7 1.6 1.1 3.2 1.4 4.8l-3.3 1.3c-.2.1-.4.3-.5.5-.1.2 0 .5.1.7l4.8 7.8c.5.8 1.3 1.2 2.1 1.2.3 0 .7-.1 1-.2l5.9-2.6.1.1 1.8 1.7.1.1-1.1 2.5zM122.5 118l.6-.8 1.3.2c-.3.4-.6.9-.9 1.3h-.1l-2-.3h.1c.5 0 .8-.1 1-.4zm-4.7 2.2c.1-.2.2-.4.2-.6.1 0 .1.1.2.1l4.6.6-.6 1.2c-.1-.1-.2-.2-.4-.2l-4.3-.6.3-.5zm-1.5 7.1l2.9.4c-.1.1-.3.2-.4.3-1.1.6-2.2.5-2.8.4.1-.1.1-.3.2-.4l.1-.7zm4.2-1l-4-.5.2-1 4.3.6c-.2.3-.3.6-.5.9zm-3.4-4.1l4.5.6h.1l-.3.9v.2c-.1 0-.1-.1-.2-.1l-4.3-.6.2-1zm32.6-.4l-7.3 3.3c-.4.2-.9 0-1.2-.4l-4.3-7 9.4-3.6 3.4 7.7zm-6.7-8.1l-2.8 1.1c-.5-2.4-1.4-4.9-2.7-7.6h3l2.5 6.5zm-12.6-8l4.4-4.4s.2-.1.4-.1c.4.1 1.4.6 2.8 3.5h-1.8-.1c-2.6.3-4.8 1.1-6.4 2l.7-1zm-2.2 5.2c.3-.3 3.2-3 7.6-3.7.3.6.6 1.2.9 1.7-2.9.1-5.6 2.1-5.7 2.1-.2.1-2.9 1.9-5.4 4.9l-1.3-.2 3.9-4.8zm-13.5 31.2l35.2 1.2c.7 0 2.5 0 5-.1-2.3 1.6-3.5 3.9-3.8 4.6h-36.3l-.1-5.7zm42 5.6h-3.9c.8-1.4 2.9-4.1 6.1-4.7 9.3-.3 22.6-1 25.8-2.7l.5 3.7c-5.3 3.5-22.2 3.9-28.5 3.7z"/></symbol><symbol id="branch-toy" viewBox="119.5 89.9 61.1 60.1"><path d="M125.5 150.1c-1.7 0-3.1-.6-4.3-1.8-1.3-1.3-1.9-3.1-1.8-5.1.3-3.4 2.7-7 6.5-9.7l12-8.6 1.2 1.6-12 8.6c-3.3 2.4-5.5 5.5-5.7 8.3-.1 1.4.3 2.6 1.2 3.5.9.9 2 1.3 3.4 1.1 2.7-.3 5.7-2.5 7.9-5.9l8.2-12.5 1.7 1.1-8.2 12.5c-2.6 3.9-6.1 6.5-9.4 6.8-.2.1-.4.1-.7.1zM175.9 125.2c-25.9-6.2-30.5-30.6-30.5-30.8l2-.3c0 .2 4.4 23.3 29 29.2l-.5 1.9z"/><path d="M173.9 128.4c-26.2-5.8-31.8-31.6-31.9-31.9l2-.4c.1.2 5.4 24.9 30.4 30.4l-.5 1.9z"/><path d="M157.3 136.4c-12.8 0-23.2-10.4-23.2-23.2 0-12.8 10.4-23.2 23.2-23.2 5.2 0 10.4 1.8 14.5 5l-1.2 1.6c-3.8-3-8.4-4.6-13.2-4.6-11.7 0-21.2 9.5-21.2 21.2s9.5 21.2 21.2 21.2 21.2-9.5 21.2-21.2c0-3.8-1-7.5-2.9-10.7l1.7-1c2.1 3.5 3.2 7.6 3.2 11.7-.1 12.8-10.5 23.2-23.3 23.2z"/><path d="M173.8 103.9c-2.8 0-5.1-2.3-5.1-5.1s2.3-5.1 5.1-5.1 5.1 2.3 5.1 5.1-2.3 5.1-5.1 5.1zm0-8.2c-1.7 0-3.1 1.4-3.1 3.1s1.4 3.1 3.1 3.1 3.1-1.4 3.1-3.1-1.4-3.1-3.1-3.1z"/></symbol><symbol id="branch-wrapper" viewBox="203.5 94.4 53 51.3"><g><path d="M203.5 145.6V94.4h53v51.3h-53zm51.1-1.9V96.3h-16.8v12.2l-4.4-1.1-3.4.9-3.5-.9-4.3 1.1V96.3h-16.8v47.5h49.2zM230 106.3l3.4-.9 2.5.6v-9.7h-11.7v9.7l2.5-.6 3.3.9z"/><path d="M247.8 141.4v-5.5l-1 1-1.4-1.3 3.3-3.3 3.3 3.3-1.3 1.3-1-1v5.5zM239.3 141.4v-5.5l-1 1-1.4-1.3 3.3-3.3 3.3 3.3-1.3 1.3-1-1v5.5z"/></g></symbol></svg>