<svg xmlns="http://www.w3.org/2000/svg" viewBox="0 0 219.3 72.9"><path fill="#6399C7" d="M8.9 15.1s3.7-4.5 6.8-1.5l9.8 7.6-24 25.7c-.1.1-.3 0-.3-.1C1 44-.3 27 .1 25.2c.9-1.9 8.8-10.1 8.8-10.1z"/><path fill="#FFF" d="M16.2 11.7s20.7-1.5 22.2-1.5c1.8 0 3.5 1.2 10.9 7.9-5.8 6.1-11.1 11.5-11.1 11.5l-22-17.9z"/><path fill="#D13D43" d="M12.2 37.8l-7.8 8.6s-2.6 2.2-.2 4.3c2.4 2.1 26 22.2 26 22.2l44.6-49L77.7 0l-49 51.2-16.5-13.4z"/><g fill="#FFF"><path d="M89.1 49.1c-.8 0-1.5.3-1.9.8-.5.6-.7 1.3-.7 2.3 0 1 .2 1.7.7 2.3.5.5 1.1.8 1.9.8.5 0 1.1-.1 1.8-.3v.8c-.5.2-1.1.3-1.9.3-1.1 0-1.9-.3-2.5-1-.6-.7-.9-1.6-.9-2.9 0-.8.1-1.5.4-2 .3-.6.7-1 1.2-1.3.5-.3 1.2-.5 1.9-.5.8 0 1.5.1 2 .4l-.4.8c-.5-.4-1-.5-1.6-.5zM94.7 56.1c-.8 0-1.5-.3-1.9-.8-.5-.5-.7-1.2-.7-2.1 0-.9.2-1.6.7-2.2.4-.5 1-.8 1.8-.8.7 0 1.2.2 1.6.7.4.5.6 1.1.6 1.8v.5H93c0 .7.2 1.2.5 1.5.3.3.8.5 1.3.5.6 0 1.2-.1 1.8-.4v.8c-.3.1-.6.2-.8.3-.4.1-.7.2-1.1.2zm-.2-5.2c-.4 0-.8.1-1.1.4-.3.3-.4.7-.5 1.2h2.9c0-.5-.1-1-.4-1.2s-.5-.4-.9-.4zM100.8 56.1c-.4 0-.7-.1-1-.2-.3-.1-.5-.3-.8-.6 0 .3.1.6.1.9v2.3h-.8v-8.2h.7l.1.8c.2-.3.5-.5.8-.7s.6-.2 1-.2c.7 0 1.3.3 1.7.8.4.5.6 1.2.6 2.1 0 .9-.2 1.6-.6 2.2-.6.5-1.1.8-1.8.8zm-.2-5.2c-.6 0-1 .2-1.2.5-.3.3-.4.8-.4 1.5v.2c0 .8.1 1.4.4 1.7.3.3.7.5 1.2.5s.9-.2 1.1-.6c.3-.4.4-.9.4-1.6 0-.7-.1-1.2-.4-1.6-.2-.4-.6-.6-1.1-.6zM108.3 51h-1.8v5h-.8v-5h-1.8v-.7h4.4v.7zM110.1 50.3v4.8l3-4.8h1V56h-.8v-4.8l-3 4.8h-1v-5.6h.8zM121.9 53.1c0 .9-.2 1.5-.7 2-.5.5-1.1.8-2 .9v2.4h-.8V56c-.8-.1-1.5-.4-2-.9s-.7-1.2-.7-2c0-.9.2-1.5.7-2 .5-.5 1.2-.8 2-.9v-2.3h.8v2.3c.8.1 1.5.4 2 .9s.7 1.2.7 2zm-5.4 0c0 .7.1 1.2.4 1.5.3.4.8.6 1.4.7v-4.4c-.6.1-1.1.3-1.4.6-.3.4-.4.9-.4 1.6zm4.5 0c0-1.3-.6-2-1.8-2.2v4.4c.6-.1 1.1-.3 1.4-.7.2-.3.4-.8.4-1.5zM124.1 50.3v4.8l3-4.8h1V56h-.8v-4.8l-3 4.8h-1v-5.6h.8zM133.1 50.3h.9l-2.4 2.7 2.6 2.9h-1l-2.5-2.9v3h-.8v-5.6h.8v2.7l2.4-2.8zM138.7 56l-.2-.8c-.3.4-.6.6-.8.7-.3.1-.6.2-1 .2-.5 0-1-.1-1.3-.4s-.5-.7-.5-1.2c0-1.1.9-1.7 2.7-1.8h.9v-.3c0-.4-.1-.8-.3-1-.2-.2-.5-.3-.9-.3-.5 0-1 .1-1.6.4l-.3-.7c.3-.2.6-.3.9-.4.3-.1.7-.1 1-.1.7 0 1.2.1 1.5.4.3.3.5.8.5 1.4V56h-.6zm-1.9-.7c.5 0 .9-.1 1.2-.4.3-.3.4-.7.4-1.2v-.5h-.8c-.7 0-1.1.1-1.4.3-.3.2-.4.5-.4.9 0 .3.1.5.3.7.1.2.3.2.7.2zM146.4 57.9h-.8V56H141v-5.6h.8v4.9h2.9v-4.9h.8v4.9h.8v2.6zM148.3 50.3v4.8l3-4.8h1V56h-.8v-4.8l-3 4.8h-1v-5.6h.8zM158.9 53.1c0 .9-.2 1.6-.7 2.2-.5.5-1.1.8-1.9.8-.5 0-.9-.1-1.3-.4-.4-.2-.7-.6-.9-1-.2-.4-.3-1-.3-1.6 0-.9.2-1.6.7-2.1.5-.5 1.1-.8 1.9-.8.8 0 1.4.3 1.8.8.4.5.7 1.2.7 2.1zm-4.3 0c0 .7.1 1.3.4 1.6.3.4.7.6 1.2.6s1-.2 1.3-.6c.3-.4.4-.9.4-1.6 0-.7-.1-1.3-.4-1.6-.3-.4-.7-.6-1.3-.6-.5 0-1 .2-1.2.6-.2.4-.4.9-.4 1.6zM161.2 50.3v2.4h3.1v-2.4h.8V56h-.8v-2.5h-3.1V56h-.8v-5.6h.8zM167.7 50.3v2.4h3.1v-2.4h.8V56h-.8v-2.5h-3.1V56h-.8v-5.6h.8zM174.3 52.6h1.5c.7 0 1.2.1 1.6.4.3.3.5.7.5 1.2 0 .6-.2 1-.5 1.3-.4.3-.9.4-1.6.4h-2.3v-5.6h.8v2.3zm0 .8v1.9h1.4c.9 0 1.3-.3 1.3-1 0-.3-.1-.5-.3-.7-.2-.1-.6-.2-1.1-.2h-1.3zm5.3 2.6h-.8v-5.6h.8V56zM182.2 50.3v4.8l3-4.8h1V56h-.8v-4.8l-3 4.8h-1v-5.6h.8zm1.6-.7c-.6 0-1.1-.1-1.4-.4-.3-.2-.4-.6-.5-1.2h.8c0 .4.1.6.3.7s.4.2.8.2c.3 0 .6-.1.8-.2.2-.2.3-.4.3-.7h.8c0 .5-.2.9-.5 1.2-.3.2-.8.4-1.4.4zM196.1 57.9h-.8V56h-4.6v-5.6h.8v4.9h2.9v-4.9h.8v4.9h.8v2.6zM199.5 56.1c-.8 0-1.5-.3-1.9-.8-.5-.5-.7-1.2-.7-2.1 0-.9.2-1.6.7-2.2.4-.5 1-.8 1.8-.8.7 0 1.2.2 1.6.7.4.5.6 1.1.6 1.8v.5h-3.8c0 .7.2 1.2.5 1.5.3.3.8.5 1.3.5.6 0 1.2-.1 1.8-.4v.8c-.3.1-.6.2-.8.3-.4.1-.7.2-1.1.2zm-.2-5.2c-.4 0-.8.1-1.1.4-.3.3-.4.7-.5 1.2h2.9c0-.5-.1-1-.4-1.2-.1-.2-.5-.4-.9-.4zM203.8 50.3v2.4h3.1v-2.4h.8V56h-.8v-2.5h-3.1V56h-.8v-5.6h.8zM213.3 51h-1.8v5h-.8v-5h-1.8v-.7h4.4v.7zM217 56.1c-.4 0-.7-.1-1-.2-.3-.1-.5-.3-.8-.6h-.1c0 .3.1.6.1.9v2.3h-.8v-8.2h.7l.1.8c.2-.3.5-.5.8-.7.3-.1.6-.2 1-.2.7 0 1.3.3 1.7.8s.6 1.2.6 2.1c0 .9-.2 1.6-.6 2.2-.5.5-1 .8-1.7.8zm-.2-5.2c-.6 0-1 .2-1.2.5-.3.3-.4.8-.4 1.5v.2c0 .8.1 1.4.4 1.7.3.3.7.5 1.2.5s.9-.2 1.1-.6c.3-.4.4-.9.4-1.6 0-.7-.1-1.2-.4-1.6-.2-.4-.6-.6-1.1-.6z"/></g><g fill="#FFF"><path d="M91 33.7v7.7h-4.9V19.1h7.7c5.5 0 8.3 2.4 8.3 7.1 0 2.2-.8 4-2.4 5.4-1.6 1.4-3.7 2.1-6.3 2.1H91zm0-10.8v6.9h2c2.6 0 3.9-1.2 3.9-3.5s-1.3-3.4-3.9-3.4h-2zM114.5 41.7c-3.1 0-5.7-1-7.6-3.1-2-2.1-3-4.8-3-8.1 0-3.5 1-6.4 3-8.5 2-2.2 4.7-3.3 8-3.3 3.1 0 5.6 1 7.6 3.1 1.9 2.1 2.9 4.8 2.9 8.2 0 3.5-1 6.3-3 8.4-2.1 2.2-4.7 3.3-7.9 3.3zm.2-18.7c-1.7 0-3.1.7-4.1 2-1 1.3-1.5 3.1-1.5 5.2 0 2.2.5 3.9 1.5 5.2 1 1.3 2.3 1.9 4 1.9 1.7 0 3-.6 4-1.9 1-1.2 1.5-3 1.5-5.2 0-2.3-.5-4.1-1.4-5.4-1-1.1-2.3-1.8-4-1.8zM144.6 40.5c-1.6.8-3.7 1.2-6.2 1.2-3.4 0-6-1-7.9-3-1.9-2-2.9-4.7-2.9-8 0-3.6 1.1-6.4 3.2-8.6 2.2-2.2 5-3.3 8.4-3.3 2.1 0 3.9.3 5.4.8v4.8c-1.5-.9-3.1-1.3-5-1.3-2.1 0-3.7.7-5 2-1.3 1.3-1.9 3.1-1.9 5.3 0 2.1.6 3.9 1.8 5.1 1.2 1.3 2.8 1.9 4.8 1.9 1.9 0 3.7-.5 5.3-1.4v4.5zM163.7 23.2h-6.2v18.1h-4.9V23.2h-6.2v-4.1h17.4v4.1zM179.8 41.3h-13.1V19.1h12.6v4.1h-7.7v4.9h7.1v4.1h-7.1v5.1h8.2v4zM198.9 40.5c-1.6.8-3.7 1.2-6.2 1.2-3.4 0-6-1-7.9-3-1.9-2-2.9-4.7-2.9-8 0-3.6 1.1-6.4 3.2-8.6 2.2-2.2 5-3.3 8.4-3.3 2.1 0 3.9.3 5.4.8v4.8c-1.5-.9-3.1-1.3-5-1.3-2.1 0-3.7.7-5 2-1.3 1.3-1.9 3.1-1.9 5.3 0 2.1.6 3.9 1.8 5.1 1.2 1.3 2.8 1.9 4.8 1.9 1.9 0 3.7-.5 5.3-1.4v4.5zM218.1 23.2h-6.2v18.1H207V23.2h-6.2v-4.1h17.4v4.1z"/></g></svg>